<?xml version="1.0" encoding="utf-8" standalone="no"?>
<!DOCTYPE svg PUBLIC "-//W3C//DTD SVG 1.1//EN"
  "http://www.w3.org/Graphics/SVG/1.1/DTD/svg11.dtd">
<!-- Created with matplotlib (https://matplotlib.org/) -->
<svg height="360pt" version="1.1" viewBox="0 0 720 360" width="720pt" xmlns="http://www.w3.org/2000/svg" xmlns:xlink="http://www.w3.org/1999/xlink">
 <metadata>
  <rdf:RDF xmlns:cc="http://creativecommons.org/ns#" xmlns:dc="http://purl.org/dc/elements/1.1/" xmlns:rdf="http://www.w3.org/1999/02/22-rdf-syntax-ns#">
   <cc:Work>
    <dc:type rdf:resource="http://purl.org/dc/dcmitype/StillImage"/>
    <dc:date>2022-08-11T14:01:36.365682</dc:date>
    <dc:format>image/svg+xml</dc:format>
    <dc:creator>
     <cc:Agent>
      <dc:title>Matplotlib v3.3.4, https://matplotlib.org/</dc:title>
     </cc:Agent>
    </dc:creator>
   </cc:Work>
  </rdf:RDF>
 </metadata>
 <defs>
  <style type="text/css">*{stroke-linecap:butt;stroke-linejoin:round;}</style>
 </defs>
 <g id="figure_1">
  <g id="patch_1">
   <path d="M 0 360 
L 720 360 
L 720 0 
L 0 0 
z
" style="fill:none;"/>
  </g>
  <g id="axes_1">
   <g id="patch_2">
    <path d="M 54.55 303.5 
L 339.85 303.5 
L 339.85 41.083251 
L 54.55 41.083251 
z
" style="fill:#ffffff;"/>
   </g>
   <g id="patch_3">
    <path clip-path="url(#p9db0c901a7)" d="M 67.518182 303.5 
L 96.336364 303.5 
L 96.336364 286.264089 
L 67.518182 286.264089 
z
" style="fill:#aaaaff;"/>
   </g>
   <g id="patch_4">
    <path clip-path="url(#p9db0c901a7)" d="M 96.336364 303.5 
L 125.154545 303.5 
L 125.154545 200.084533 
L 96.336364 200.084533 
z
" style="fill:#aaaaff;"/>
   </g>
   <g id="patch_5">
    <path clip-path="url(#p9db0c901a7)" d="M 125.154545 303.5 
L 153.972727 303.5 
L 153.972727 53.579287 
L 125.154545 53.579287 
z
" style="fill:#aaaaff;"/>
   </g>
   <g id="patch_6">
    <path clip-path="url(#p9db0c901a7)" d="M 153.972727 303.5 
L 182.790909 303.5 
L 182.790909 148.376799 
L 153.972727 148.376799 
z
" style="fill:#aaaaff;"/>
   </g>
   <g id="patch_7">
    <path clip-path="url(#p9db0c901a7)" d="M 182.790909 303.5 
L 211.609091 303.5 
L 211.609091 105.287021 
L 182.790909 105.287021 
z
" style="fill:#aaaaff;"/>
   </g>
   <g id="patch_8">
    <path clip-path="url(#p9db0c901a7)" d="M 211.609091 303.5 
L 240.427273 303.5 
L 240.427273 208.702488 
L 211.609091 208.702488 
z
" style="fill:#aaaaff;"/>
   </g>
   <g id="patch_9">
    <path clip-path="url(#p9db0c901a7)" d="M 240.427273 303.5 
L 269.245455 303.5 
L 269.245455 225.938399 
L 240.427273 225.938399 
z
" style="fill:#aaaaff;"/>
   </g>
   <g id="patch_10">
    <path clip-path="url(#p9db0c901a7)" d="M 269.245455 303.5 
L 298.063636 303.5 
L 298.063636 303.5 
L 269.245455 303.5 
z
" style="fill:#aaaaff;"/>
   </g>
   <g id="patch_11">
    <path clip-path="url(#p9db0c901a7)" d="M 298.063636 303.5 
L 326.881818 303.5 
L 326.881818 294.882044 
L 298.063636 294.882044 
z
" style="fill:#aaaaff;"/>
   </g>
   <g id="matplotlib.axis_1">
    <g id="xtick_1">
     <g id="line2d_1">
      <defs>
       <path d="M 0 0 
L 0 3.5 
" id="m1d91d7ce2b" style="stroke:#000000;stroke-width:0.8;"/>
      </defs>
      <g>
       <use style="stroke:#000000;stroke-width:0.8;" x="78.325" xlink:href="#m1d91d7ce2b" y="303.5"/>
      </g>
     </g>
     <g id="text_1">
      <!-- 2500 -->
      <g transform="translate(60.51 321.137812)scale(0.14 -0.14)">
       <defs>
        <path d="M 19.1875 8.296875 
L 53.609375 8.296875 
L 53.609375 0 
L 7.328125 0 
L 7.328125 8.296875 
Q 12.9375 14.109375 22.625 23.890625 
Q 32.328125 33.6875 34.8125 36.53125 
Q 39.546875 41.84375 41.421875 45.53125 
Q 43.3125 49.21875 43.3125 52.78125 
Q 43.3125 58.59375 39.234375 62.25 
Q 35.15625 65.921875 28.609375 65.921875 
Q 23.96875 65.921875 18.8125 64.3125 
Q 13.671875 62.703125 7.8125 59.421875 
L 7.8125 69.390625 
Q 13.765625 71.78125 18.9375 73 
Q 24.125 74.21875 28.421875 74.21875 
Q 39.75 74.21875 46.484375 68.546875 
Q 53.21875 62.890625 53.21875 53.421875 
Q 53.21875 48.921875 51.53125 44.890625 
Q 49.859375 40.875 45.40625 35.40625 
Q 44.1875 33.984375 37.640625 27.21875 
Q 31.109375 20.453125 19.1875 8.296875 
z
" id="DejaVuSans-50"/>
        <path d="M 10.796875 72.90625 
L 49.515625 72.90625 
L 49.515625 64.59375 
L 19.828125 64.59375 
L 19.828125 46.734375 
Q 21.96875 47.46875 24.109375 47.828125 
Q 26.265625 48.1875 28.421875 48.1875 
Q 40.625 48.1875 47.75 41.5 
Q 54.890625 34.8125 54.890625 23.390625 
Q 54.890625 11.625 47.5625 5.09375 
Q 40.234375 -1.421875 26.90625 -1.421875 
Q 22.3125 -1.421875 17.546875 -0.640625 
Q 12.796875 0.140625 7.71875 1.703125 
L 7.71875 11.625 
Q 12.109375 9.234375 16.796875 8.0625 
Q 21.484375 6.890625 26.703125 6.890625 
Q 35.15625 6.890625 40.078125 11.328125 
Q 45.015625 15.765625 45.015625 23.390625 
Q 45.015625 31 40.078125 35.4375 
Q 35.15625 39.890625 26.703125 39.890625 
Q 22.75 39.890625 18.8125 39.015625 
Q 14.890625 38.140625 10.796875 36.28125 
z
" id="DejaVuSans-53"/>
        <path d="M 31.78125 66.40625 
Q 24.171875 66.40625 20.328125 58.90625 
Q 16.5 51.421875 16.5 36.375 
Q 16.5 21.390625 20.328125 13.890625 
Q 24.171875 6.390625 31.78125 6.390625 
Q 39.453125 6.390625 43.28125 13.890625 
Q 47.125 21.390625 47.125 36.375 
Q 47.125 51.421875 43.28125 58.90625 
Q 39.453125 66.40625 31.78125 66.40625 
z
M 31.78125 74.21875 
Q 44.046875 74.21875 50.515625 64.515625 
Q 56.984375 54.828125 56.984375 36.375 
Q 56.984375 17.96875 50.515625 8.265625 
Q 44.046875 -1.421875 31.78125 -1.421875 
Q 19.53125 -1.421875 13.0625 8.265625 
Q 6.59375 17.96875 6.59375 36.375 
Q 6.59375 54.828125 13.0625 64.515625 
Q 19.53125 74.21875 31.78125 74.21875 
z
" id="DejaVuSans-48"/>
       </defs>
       <use xlink:href="#DejaVuSans-50"/>
       <use x="63.623047" xlink:href="#DejaVuSans-53"/>
       <use x="127.246094" xlink:href="#DejaVuSans-48"/>
       <use x="190.869141" xlink:href="#DejaVuSans-48"/>
      </g>
     </g>
    </g>
    <g id="xtick_2">
     <g id="line2d_2">
      <g>
       <use style="stroke:#000000;stroke-width:0.8;" x="132.359091" xlink:href="#m1d91d7ce2b" y="303.5"/>
      </g>
     </g>
     <g id="text_2">
      <!-- 5000 -->
      <g transform="translate(114.544091 321.137812)scale(0.14 -0.14)">
       <use xlink:href="#DejaVuSans-53"/>
       <use x="63.623047" xlink:href="#DejaVuSans-48"/>
       <use x="127.246094" xlink:href="#DejaVuSans-48"/>
       <use x="190.869141" xlink:href="#DejaVuSans-48"/>
      </g>
     </g>
    </g>
    <g id="xtick_3">
     <g id="line2d_3">
      <g>
       <use style="stroke:#000000;stroke-width:0.8;" x="186.393182" xlink:href="#m1d91d7ce2b" y="303.5"/>
      </g>
     </g>
     <g id="text_3">
      <!-- 7500 -->
      <g transform="translate(168.578182 321.137812)scale(0.14 -0.14)">
       <defs>
        <path d="M 8.203125 72.90625 
L 55.078125 72.90625 
L 55.078125 68.703125 
L 28.609375 0 
L 18.3125 0 
L 43.21875 64.59375 
L 8.203125 64.59375 
z
" id="DejaVuSans-55"/>
       </defs>
       <use xlink:href="#DejaVuSans-55"/>
       <use x="63.623047" xlink:href="#DejaVuSans-53"/>
       <use x="127.246094" xlink:href="#DejaVuSans-48"/>
       <use x="190.869141" xlink:href="#DejaVuSans-48"/>
      </g>
     </g>
    </g>
    <g id="xtick_4">
     <g id="line2d_4">
      <g>
       <use style="stroke:#000000;stroke-width:0.8;" x="240.427273" xlink:href="#m1d91d7ce2b" y="303.5"/>
      </g>
     </g>
     <g id="text_4">
      <!-- 10000 -->
      <g transform="translate(218.158523 321.137812)scale(0.14 -0.14)">
       <defs>
        <path d="M 12.40625 8.296875 
L 28.515625 8.296875 
L 28.515625 63.921875 
L 10.984375 60.40625 
L 10.984375 69.390625 
L 28.421875 72.90625 
L 38.28125 72.90625 
L 38.28125 8.296875 
L 54.390625 8.296875 
L 54.390625 0 
L 12.40625 0 
z
" id="DejaVuSans-49"/>
       </defs>
       <use xlink:href="#DejaVuSans-49"/>
       <use x="63.623047" xlink:href="#DejaVuSans-48"/>
       <use x="127.246094" xlink:href="#DejaVuSans-48"/>
       <use x="190.869141" xlink:href="#DejaVuSans-48"/>
       <use x="254.492188" xlink:href="#DejaVuSans-48"/>
      </g>
     </g>
    </g>
    <g id="xtick_5">
     <g id="line2d_5">
      <g>
       <use style="stroke:#000000;stroke-width:0.8;" x="294.461364" xlink:href="#m1d91d7ce2b" y="303.5"/>
      </g>
     </g>
     <g id="text_5">
      <!-- 12500 -->
      <g transform="translate(272.192614 321.137812)scale(0.14 -0.14)">
       <use xlink:href="#DejaVuSans-49"/>
       <use x="63.623047" xlink:href="#DejaVuSans-50"/>
       <use x="127.246094" xlink:href="#DejaVuSans-53"/>
       <use x="190.869141" xlink:href="#DejaVuSans-48"/>
       <use x="254.492188" xlink:href="#DejaVuSans-48"/>
      </g>
     </g>
    </g>
    <g id="text_6">
     <!-- Annual flow (Million $m^3$) -->
     <g transform="translate(101.28 341.521875)scale(0.16 -0.16)">
      <defs>
       <path d="M 34.1875 63.1875 
L 20.796875 26.90625 
L 47.609375 26.90625 
z
M 28.609375 72.90625 
L 39.796875 72.90625 
L 67.578125 0 
L 57.328125 0 
L 50.6875 18.703125 
L 17.828125 18.703125 
L 11.1875 0 
L 0.78125 0 
z
" id="DejaVuSans-65"/>
       <path d="M 54.890625 33.015625 
L 54.890625 0 
L 45.90625 0 
L 45.90625 32.71875 
Q 45.90625 40.484375 42.875 44.328125 
Q 39.84375 48.1875 33.796875 48.1875 
Q 26.515625 48.1875 22.3125 43.546875 
Q 18.109375 38.921875 18.109375 30.90625 
L 18.109375 0 
L 9.078125 0 
L 9.078125 54.6875 
L 18.109375 54.6875 
L 18.109375 46.1875 
Q 21.34375 51.125 25.703125 53.5625 
Q 30.078125 56 35.796875 56 
Q 45.21875 56 50.046875 50.171875 
Q 54.890625 44.34375 54.890625 33.015625 
z
" id="DejaVuSans-110"/>
       <path d="M 8.5 21.578125 
L 8.5 54.6875 
L 17.484375 54.6875 
L 17.484375 21.921875 
Q 17.484375 14.15625 20.5 10.265625 
Q 23.53125 6.390625 29.59375 6.390625 
Q 36.859375 6.390625 41.078125 11.03125 
Q 45.3125 15.671875 45.3125 23.6875 
L 45.3125 54.6875 
L 54.296875 54.6875 
L 54.296875 0 
L 45.3125 0 
L 45.3125 8.40625 
Q 42.046875 3.421875 37.71875 1 
Q 33.40625 -1.421875 27.6875 -1.421875 
Q 18.265625 -1.421875 13.375 4.4375 
Q 8.5 10.296875 8.5 21.578125 
z
M 31.109375 56 
z
" id="DejaVuSans-117"/>
       <path d="M 34.28125 27.484375 
Q 23.390625 27.484375 19.1875 25 
Q 14.984375 22.515625 14.984375 16.5 
Q 14.984375 11.71875 18.140625 8.90625 
Q 21.296875 6.109375 26.703125 6.109375 
Q 34.1875 6.109375 38.703125 11.40625 
Q 43.21875 16.703125 43.21875 25.484375 
L 43.21875 27.484375 
z
M 52.203125 31.203125 
L 52.203125 0 
L 43.21875 0 
L 43.21875 8.296875 
Q 40.140625 3.328125 35.546875 0.953125 
Q 30.953125 -1.421875 24.3125 -1.421875 
Q 15.921875 -1.421875 10.953125 3.296875 
Q 6 8.015625 6 15.921875 
Q 6 25.140625 12.171875 29.828125 
Q 18.359375 34.515625 30.609375 34.515625 
L 43.21875 34.515625 
L 43.21875 35.40625 
Q 43.21875 41.609375 39.140625 45 
Q 35.0625 48.390625 27.6875 48.390625 
Q 23 48.390625 18.546875 47.265625 
Q 14.109375 46.140625 10.015625 43.890625 
L 10.015625 52.203125 
Q 14.9375 54.109375 19.578125 55.046875 
Q 24.21875 56 28.609375 56 
Q 40.484375 56 46.34375 49.84375 
Q 52.203125 43.703125 52.203125 31.203125 
z
" id="DejaVuSans-97"/>
       <path d="M 9.421875 75.984375 
L 18.40625 75.984375 
L 18.40625 0 
L 9.421875 0 
z
" id="DejaVuSans-108"/>
       <path id="DejaVuSans-32"/>
       <path d="M 37.109375 75.984375 
L 37.109375 68.5 
L 28.515625 68.5 
Q 23.6875 68.5 21.796875 66.546875 
Q 19.921875 64.59375 19.921875 59.515625 
L 19.921875 54.6875 
L 34.71875 54.6875 
L 34.71875 47.703125 
L 19.921875 47.703125 
L 19.921875 0 
L 10.890625 0 
L 10.890625 47.703125 
L 2.296875 47.703125 
L 2.296875 54.6875 
L 10.890625 54.6875 
L 10.890625 58.5 
Q 10.890625 67.625 15.140625 71.796875 
Q 19.390625 75.984375 28.609375 75.984375 
z
" id="DejaVuSans-102"/>
       <path d="M 30.609375 48.390625 
Q 23.390625 48.390625 19.1875 42.75 
Q 14.984375 37.109375 14.984375 27.296875 
Q 14.984375 17.484375 19.15625 11.84375 
Q 23.34375 6.203125 30.609375 6.203125 
Q 37.796875 6.203125 41.984375 11.859375 
Q 46.1875 17.53125 46.1875 27.296875 
Q 46.1875 37.015625 41.984375 42.703125 
Q 37.796875 48.390625 30.609375 48.390625 
z
M 30.609375 56 
Q 42.328125 56 49.015625 48.375 
Q 55.71875 40.765625 55.71875 27.296875 
Q 55.71875 13.875 49.015625 6.21875 
Q 42.328125 -1.421875 30.609375 -1.421875 
Q 18.84375 -1.421875 12.171875 6.21875 
Q 5.515625 13.875 5.515625 27.296875 
Q 5.515625 40.765625 12.171875 48.375 
Q 18.84375 56 30.609375 56 
z
" id="DejaVuSans-111"/>
       <path d="M 4.203125 54.6875 
L 13.1875 54.6875 
L 24.421875 12.015625 
L 35.59375 54.6875 
L 46.1875 54.6875 
L 57.421875 12.015625 
L 68.609375 54.6875 
L 77.59375 54.6875 
L 63.28125 0 
L 52.6875 0 
L 40.921875 44.828125 
L 29.109375 0 
L 18.5 0 
z
" id="DejaVuSans-119"/>
       <path d="M 31 75.875 
Q 24.46875 64.65625 21.28125 53.65625 
Q 18.109375 42.671875 18.109375 31.390625 
Q 18.109375 20.125 21.3125 9.0625 
Q 24.515625 -2 31 -13.1875 
L 23.1875 -13.1875 
Q 15.875 -1.703125 12.234375 9.375 
Q 8.59375 20.453125 8.59375 31.390625 
Q 8.59375 42.28125 12.203125 53.3125 
Q 15.828125 64.359375 23.1875 75.875 
z
" id="DejaVuSans-40"/>
       <path d="M 9.8125 72.90625 
L 24.515625 72.90625 
L 43.109375 23.296875 
L 61.8125 72.90625 
L 76.515625 72.90625 
L 76.515625 0 
L 66.890625 0 
L 66.890625 64.015625 
L 48.09375 14.015625 
L 38.1875 14.015625 
L 19.390625 64.015625 
L 19.390625 0 
L 9.8125 0 
z
" id="DejaVuSans-77"/>
       <path d="M 9.421875 54.6875 
L 18.40625 54.6875 
L 18.40625 0 
L 9.421875 0 
z
M 9.421875 75.984375 
L 18.40625 75.984375 
L 18.40625 64.59375 
L 9.421875 64.59375 
z
" id="DejaVuSans-105"/>
       <path d="M 89.796875 33.015625 
L 83.40625 0 
L 74.421875 0 
L 80.71875 32.71875 
Q 81.109375 34.8125 81.296875 36.328125 
Q 81.5 37.84375 81.5 38.921875 
Q 81.5 43.3125 79.046875 45.75 
Q 76.609375 48.1875 72.21875 48.1875 
Q 65.671875 48.1875 60.546875 43.28125 
Q 55.421875 38.375 53.90625 30.515625 
L 47.90625 0 
L 38.921875 0 
L 45.3125 32.71875 
Q 45.703125 34.515625 45.890625 36.046875 
Q 46.09375 37.59375 46.09375 38.8125 
Q 46.09375 43.265625 43.65625 45.71875 
Q 41.21875 48.1875 36.921875 48.1875 
Q 30.28125 48.1875 25.140625 43.28125 
Q 20.015625 38.375 18.5 30.515625 
L 12.5 0 
L 3.515625 0 
L 14.203125 54.6875 
L 23.1875 54.6875 
L 21.484375 46.1875 
Q 25.140625 50.984375 30.046875 53.484375 
Q 34.96875 56 40.578125 56 
Q 46.53125 56 50.359375 52.875 
Q 54.203125 49.75 54.984375 44.1875 
Q 59.078125 49.953125 64.46875 52.96875 
Q 69.875 56 75.875 56 
Q 82.90625 56 86.734375 51.953125 
Q 90.578125 47.90625 90.578125 40.484375 
Q 90.578125 38.875 90.375 36.9375 
Q 90.1875 35.015625 89.796875 33.015625 
z
" id="DejaVuSans-Oblique-109"/>
       <path d="M 40.578125 39.3125 
Q 47.65625 37.796875 51.625 33 
Q 55.609375 28.21875 55.609375 21.1875 
Q 55.609375 10.40625 48.1875 4.484375 
Q 40.765625 -1.421875 27.09375 -1.421875 
Q 22.515625 -1.421875 17.65625 -0.515625 
Q 12.796875 0.390625 7.625 2.203125 
L 7.625 11.71875 
Q 11.71875 9.328125 16.59375 8.109375 
Q 21.484375 6.890625 26.8125 6.890625 
Q 36.078125 6.890625 40.9375 10.546875 
Q 45.796875 14.203125 45.796875 21.1875 
Q 45.796875 27.640625 41.28125 31.265625 
Q 36.765625 34.90625 28.71875 34.90625 
L 20.21875 34.90625 
L 20.21875 43.015625 
L 29.109375 43.015625 
Q 36.375 43.015625 40.234375 45.921875 
Q 44.09375 48.828125 44.09375 54.296875 
Q 44.09375 59.90625 40.109375 62.90625 
Q 36.140625 65.921875 28.71875 65.921875 
Q 24.65625 65.921875 20.015625 65.03125 
Q 15.375 64.15625 9.8125 62.3125 
L 9.8125 71.09375 
Q 15.4375 72.65625 20.34375 73.4375 
Q 25.25 74.21875 29.59375 74.21875 
Q 40.828125 74.21875 47.359375 69.109375 
Q 53.90625 64.015625 53.90625 55.328125 
Q 53.90625 49.265625 50.4375 45.09375 
Q 46.96875 40.921875 40.578125 39.3125 
z
" id="DejaVuSans-51"/>
       <path d="M 8.015625 75.875 
L 15.828125 75.875 
Q 23.140625 64.359375 26.78125 53.3125 
Q 30.421875 42.28125 30.421875 31.390625 
Q 30.421875 20.453125 26.78125 9.375 
Q 23.140625 -1.703125 15.828125 -13.1875 
L 8.015625 -13.1875 
Q 14.5 -2 17.703125 9.0625 
Q 20.90625 20.125 20.90625 31.390625 
Q 20.90625 42.671875 17.703125 53.65625 
Q 14.5 64.65625 8.015625 75.875 
z
" id="DejaVuSans-41"/>
      </defs>
      <use transform="translate(0 0.765625)" xlink:href="#DejaVuSans-65"/>
      <use transform="translate(68.408203 0.765625)" xlink:href="#DejaVuSans-110"/>
      <use transform="translate(131.787109 0.765625)" xlink:href="#DejaVuSans-110"/>
      <use transform="translate(195.166016 0.765625)" xlink:href="#DejaVuSans-117"/>
      <use transform="translate(258.544922 0.765625)" xlink:href="#DejaVuSans-97"/>
      <use transform="translate(319.824219 0.765625)" xlink:href="#DejaVuSans-108"/>
      <use transform="translate(347.607422 0.765625)" xlink:href="#DejaVuSans-32"/>
      <use transform="translate(379.394531 0.765625)" xlink:href="#DejaVuSans-102"/>
      <use transform="translate(414.599609 0.765625)" xlink:href="#DejaVuSans-108"/>
      <use transform="translate(442.382812 0.765625)" xlink:href="#DejaVuSans-111"/>
      <use transform="translate(503.564453 0.765625)" xlink:href="#DejaVuSans-119"/>
      <use transform="translate(585.351562 0.765625)" xlink:href="#DejaVuSans-32"/>
      <use transform="translate(617.138672 0.765625)" xlink:href="#DejaVuSans-40"/>
      <use transform="translate(656.152344 0.765625)" xlink:href="#DejaVuSans-77"/>
      <use transform="translate(742.431641 0.765625)" xlink:href="#DejaVuSans-105"/>
      <use transform="translate(770.214844 0.765625)" xlink:href="#DejaVuSans-108"/>
      <use transform="translate(797.998047 0.765625)" xlink:href="#DejaVuSans-108"/>
      <use transform="translate(825.78125 0.765625)" xlink:href="#DejaVuSans-105"/>
      <use transform="translate(853.564453 0.765625)" xlink:href="#DejaVuSans-111"/>
      <use transform="translate(914.746094 0.765625)" xlink:href="#DejaVuSans-110"/>
      <use transform="translate(978.125 0.765625)" xlink:href="#DejaVuSans-32"/>
      <use transform="translate(1009.912109 0.765625)" xlink:href="#DejaVuSans-Oblique-109"/>
      <use transform="translate(1111.974115 39.046875)scale(0.7)" xlink:href="#DejaVuSans-51"/>
      <use transform="translate(1159.244622 0.765625)" xlink:href="#DejaVuSans-41"/>
     </g>
    </g>
   </g>
   <g id="matplotlib.axis_2">
    <g id="ytick_1">
     <g id="line2d_6">
      <defs>
       <path d="M 0 0 
L -3.5 0 
" id="m2e54faf5df" style="stroke:#000000;stroke-width:0.8;"/>
      </defs>
      <g>
       <use style="stroke:#000000;stroke-width:0.8;" x="54.55" xlink:href="#m2e54faf5df" y="303.5"/>
      </g>
     </g>
     <g id="text_7">
      <!-- 0 -->
      <g transform="translate(38.6425 308.818906)scale(0.14 -0.14)">
       <use xlink:href="#DejaVuSans-48"/>
      </g>
     </g>
    </g>
    <g id="ytick_2">
     <g id="line2d_7">
      <g>
       <use style="stroke:#000000;stroke-width:0.8;" x="54.55" xlink:href="#m2e54faf5df" y="260.410222"/>
      </g>
     </g>
     <g id="text_8">
      <!-- 5 -->
      <g transform="translate(38.6425 265.729128)scale(0.14 -0.14)">
       <use xlink:href="#DejaVuSans-53"/>
      </g>
     </g>
    </g>
    <g id="ytick_3">
     <g id="line2d_8">
      <g>
       <use style="stroke:#000000;stroke-width:0.8;" x="54.55" xlink:href="#m2e54faf5df" y="217.320444"/>
      </g>
     </g>
     <g id="text_9">
      <!-- 10 -->
      <g transform="translate(29.735 222.63935)scale(0.14 -0.14)">
       <use xlink:href="#DejaVuSans-49"/>
       <use x="63.623047" xlink:href="#DejaVuSans-48"/>
      </g>
     </g>
    </g>
    <g id="ytick_4">
     <g id="line2d_9">
      <g>
       <use style="stroke:#000000;stroke-width:0.8;" x="54.55" xlink:href="#m2e54faf5df" y="174.230666"/>
      </g>
     </g>
     <g id="text_10">
      <!-- 15 -->
      <g transform="translate(29.735 179.549572)scale(0.14 -0.14)">
       <use xlink:href="#DejaVuSans-49"/>
       <use x="63.623047" xlink:href="#DejaVuSans-53"/>
      </g>
     </g>
    </g>
    <g id="ytick_5">
     <g id="line2d_10">
      <g>
       <use style="stroke:#000000;stroke-width:0.8;" x="54.55" xlink:href="#m2e54faf5df" y="131.140888"/>
      </g>
     </g>
     <g id="text_11">
      <!-- 20 -->
      <g transform="translate(29.735 136.459794)scale(0.14 -0.14)">
       <use xlink:href="#DejaVuSans-50"/>
       <use x="63.623047" xlink:href="#DejaVuSans-48"/>
      </g>
     </g>
    </g>
    <g id="ytick_6">
     <g id="line2d_11">
      <g>
       <use style="stroke:#000000;stroke-width:0.8;" x="54.55" xlink:href="#m2e54faf5df" y="88.051109"/>
      </g>
     </g>
     <g id="text_12">
      <!-- 25 -->
      <g transform="translate(29.735 93.370016)scale(0.14 -0.14)">
       <use xlink:href="#DejaVuSans-50"/>
       <use x="63.623047" xlink:href="#DejaVuSans-53"/>
      </g>
     </g>
    </g>
    <g id="ytick_7">
     <g id="line2d_12">
      <g>
       <use style="stroke:#000000;stroke-width:0.8;" x="54.55" xlink:href="#m2e54faf5df" y="44.961331"/>
      </g>
     </g>
     <g id="text_13">
      <!-- 30 -->
      <g transform="translate(29.735 50.280238)scale(0.14 -0.14)">
       <use xlink:href="#DejaVuSans-51"/>
       <use x="63.623047" xlink:href="#DejaVuSans-48"/>
      </g>
     </g>
    </g>
    <g id="text_14">
     <!-- Density -->
     <g transform="translate(22.4075 202.705376)rotate(-90)scale(0.16 -0.16)">
      <defs>
       <path d="M 19.671875 64.796875 
L 19.671875 8.109375 
L 31.59375 8.109375 
Q 46.6875 8.109375 53.6875 14.9375 
Q 60.6875 21.78125 60.6875 36.53125 
Q 60.6875 51.171875 53.6875 57.984375 
Q 46.6875 64.796875 31.59375 64.796875 
z
M 9.8125 72.90625 
L 30.078125 72.90625 
Q 51.265625 72.90625 61.171875 64.09375 
Q 71.09375 55.28125 71.09375 36.53125 
Q 71.09375 17.671875 61.125 8.828125 
Q 51.171875 0 30.078125 0 
L 9.8125 0 
z
" id="DejaVuSans-68"/>
       <path d="M 56.203125 29.59375 
L 56.203125 25.203125 
L 14.890625 25.203125 
Q 15.484375 15.921875 20.484375 11.0625 
Q 25.484375 6.203125 34.421875 6.203125 
Q 39.59375 6.203125 44.453125 7.46875 
Q 49.3125 8.734375 54.109375 11.28125 
L 54.109375 2.78125 
Q 49.265625 0.734375 44.1875 -0.34375 
Q 39.109375 -1.421875 33.890625 -1.421875 
Q 20.796875 -1.421875 13.15625 6.1875 
Q 5.515625 13.8125 5.515625 26.8125 
Q 5.515625 40.234375 12.765625 48.109375 
Q 20.015625 56 32.328125 56 
Q 43.359375 56 49.78125 48.890625 
Q 56.203125 41.796875 56.203125 29.59375 
z
M 47.21875 32.234375 
Q 47.125 39.59375 43.09375 43.984375 
Q 39.0625 48.390625 32.421875 48.390625 
Q 24.90625 48.390625 20.390625 44.140625 
Q 15.875 39.890625 15.1875 32.171875 
z
" id="DejaVuSans-101"/>
       <path d="M 44.28125 53.078125 
L 44.28125 44.578125 
Q 40.484375 46.53125 36.375 47.5 
Q 32.28125 48.484375 27.875 48.484375 
Q 21.1875 48.484375 17.84375 46.4375 
Q 14.5 44.390625 14.5 40.28125 
Q 14.5 37.15625 16.890625 35.375 
Q 19.28125 33.59375 26.515625 31.984375 
L 29.59375 31.296875 
Q 39.15625 29.25 43.1875 25.515625 
Q 47.21875 21.78125 47.21875 15.09375 
Q 47.21875 7.46875 41.1875 3.015625 
Q 35.15625 -1.421875 24.609375 -1.421875 
Q 20.21875 -1.421875 15.453125 -0.5625 
Q 10.6875 0.296875 5.421875 2 
L 5.421875 11.28125 
Q 10.40625 8.6875 15.234375 7.390625 
Q 20.0625 6.109375 24.8125 6.109375 
Q 31.15625 6.109375 34.5625 8.28125 
Q 37.984375 10.453125 37.984375 14.40625 
Q 37.984375 18.0625 35.515625 20.015625 
Q 33.0625 21.96875 24.703125 23.78125 
L 21.578125 24.515625 
Q 13.234375 26.265625 9.515625 29.90625 
Q 5.8125 33.546875 5.8125 39.890625 
Q 5.8125 47.609375 11.28125 51.796875 
Q 16.75 56 26.8125 56 
Q 31.78125 56 36.171875 55.265625 
Q 40.578125 54.546875 44.28125 53.078125 
z
" id="DejaVuSans-115"/>
       <path d="M 18.3125 70.21875 
L 18.3125 54.6875 
L 36.8125 54.6875 
L 36.8125 47.703125 
L 18.3125 47.703125 
L 18.3125 18.015625 
Q 18.3125 11.328125 20.140625 9.421875 
Q 21.96875 7.515625 27.59375 7.515625 
L 36.8125 7.515625 
L 36.8125 0 
L 27.59375 0 
Q 17.1875 0 13.234375 3.875 
Q 9.28125 7.765625 9.28125 18.015625 
L 9.28125 47.703125 
L 2.6875 47.703125 
L 2.6875 54.6875 
L 9.28125 54.6875 
L 9.28125 70.21875 
z
" id="DejaVuSans-116"/>
       <path d="M 32.171875 -5.078125 
Q 28.375 -14.84375 24.75 -17.8125 
Q 21.140625 -20.796875 15.09375 -20.796875 
L 7.90625 -20.796875 
L 7.90625 -13.28125 
L 13.1875 -13.28125 
Q 16.890625 -13.28125 18.9375 -11.515625 
Q 21 -9.765625 23.484375 -3.21875 
L 25.09375 0.875 
L 2.984375 54.6875 
L 12.5 54.6875 
L 29.59375 11.921875 
L 46.6875 54.6875 
L 56.203125 54.6875 
z
" id="DejaVuSans-121"/>
      </defs>
      <use xlink:href="#DejaVuSans-68"/>
      <use x="77.001953" xlink:href="#DejaVuSans-101"/>
      <use x="138.525391" xlink:href="#DejaVuSans-110"/>
      <use x="201.904297" xlink:href="#DejaVuSans-115"/>
      <use x="254.003906" xlink:href="#DejaVuSans-105"/>
      <use x="281.787109" xlink:href="#DejaVuSans-116"/>
      <use x="320.996094" xlink:href="#DejaVuSans-121"/>
     </g>
    </g>
   </g>
   <g id="line2d_13">
    <path clip-path="url(#p9db0c901a7)" d="M 151.472178 303.5 
L 151.472178 41.083251 
" style="fill:none;stroke:#000000;stroke-linecap:square;stroke-width:1.5;"/>
   </g>
   <g id="patch_12">
    <path d="M 54.55 303.5 
L 54.55 41.083251 
" style="fill:none;stroke:#000000;stroke-linecap:square;stroke-linejoin:miter;stroke-width:0.8;"/>
   </g>
   <g id="patch_13">
    <path d="M 339.85 303.5 
L 339.85 41.083251 
" style="fill:none;stroke:#000000;stroke-linecap:square;stroke-linejoin:miter;stroke-width:0.8;"/>
   </g>
   <g id="patch_14">
    <path d="M 54.55 303.5 
L 339.85 303.5 
" style="fill:none;stroke:#000000;stroke-linecap:square;stroke-linejoin:miter;stroke-width:0.8;"/>
   </g>
   <g id="patch_15">
    <path d="M 54.55 41.083251 
L 339.85 41.083251 
" style="fill:none;stroke:#000000;stroke-linecap:square;stroke-linejoin:miter;stroke-width:0.8;"/>
   </g>
  </g>
  <g id="axes_2">
   <g id="patch_16">
    <path d="M 423.9 303.5 
L 709.2 303.5 
L 709.2 41.083251 
L 423.9 41.083251 
z
" style="fill:#ffffff;"/>
   </g>
   <g id="patch_17">
    <path clip-path="url(#pe060fc1fe0)" d="M 436.868182 301.888402 
L 437.127805 301.779809 
L 437.387428 301.66532 
L 437.647052 301.544723 
L 437.906675 301.417807 
L 438.166298 301.284359 
L 438.425921 301.144171 
L 438.685545 300.997035 
L 438.945168 300.842745 
L 439.204791 300.6811 
L 439.464414 300.511902 
L 439.724038 300.334958 
L 439.983661 300.150082 
L 440.243284 299.957094 
L 440.502907 299.755818 
L 440.762531 299.546092 
L 441.022154 299.327757 
L 441.281777 299.100668 
L 441.5414 298.864689 
L 441.801024 298.619695 
L 442.060647 298.365574 
L 442.32027 298.102226 
L 442.579894 297.829565 
L 442.839517 297.54752 
L 443.09914 297.256036 
L 443.358763 296.95507 
L 443.618387 296.6446 
L 443.87801 296.324618 
L 444.137633 295.995134 
L 444.397256 295.656179 
L 444.65688 295.307797 
L 444.916503 294.950056 
L 445.176126 294.583039 
L 445.435749 294.206851 
L 445.695373 293.821616 
L 445.954996 293.427474 
L 446.214619 293.02459 
L 446.474242 292.613143 
L 446.733866 292.193334 
L 446.993489 291.765382 
L 447.253112 291.329525 
L 447.512735 290.886016 
L 447.772359 290.435128 
L 448.031982 289.97715 
L 448.291605 289.512386 
L 448.551229 289.041154 
L 448.810852 288.563788 
L 449.070475 288.080633 
L 449.330098 287.592046 
L 449.589722 287.098394 
L 449.849345 286.600055 
L 450.108968 286.097411 
L 450.368591 285.590854 
L 450.628215 285.080778 
L 450.887838 284.56758 
L 451.147461 284.051662 
L 451.407084 283.53342 
L 451.666708 283.013252 
L 451.926331 282.491552 
L 452.185954 281.968707 
L 452.445577 281.445096 
L 452.705201 280.921092 
L 452.964824 280.397053 
L 453.224447 279.873327 
L 453.48407 279.350247 
L 453.743694 278.828129 
L 454.003317 278.307271 
L 454.26294 277.787952 
L 454.522563 277.270429 
L 454.782187 276.754938 
L 455.04181 276.241689 
L 455.301433 275.730866 
L 455.561057 275.222628 
L 455.82068 274.717104 
L 456.080303 274.214397 
L 456.339926 273.714576 
L 456.59955 273.217681 
L 456.859173 272.723721 
L 457.118796 272.232672 
L 457.378419 271.744476 
L 457.638043 271.259045 
L 457.897666 270.776256 
L 458.157289 270.295951 
L 458.416912 269.817942 
L 458.676536 269.342006 
L 458.936159 268.867888 
L 459.195782 268.395302 
L 459.455405 267.923928 
L 459.715029 267.453418 
L 459.974652 266.983392 
L 460.234275 266.513444 
L 460.493898 266.043139 
L 460.753522 265.572016 
L 461.013145 265.099589 
L 461.272768 264.62535 
L 461.532391 264.148768 
L 461.792015 263.669295 
L 462.051638 263.186361 
L 462.311261 262.699383 
L 462.570885 262.207765 
L 462.830508 261.710895 
L 463.090131 261.208155 
L 463.349754 260.698918 
L 463.609378 260.182551 
L 463.869001 259.65842 
L 464.128624 259.125887 
L 464.388247 258.584319 
L 464.647871 258.033082 
L 464.907494 257.471554 
L 465.167117 256.899115 
L 465.42674 256.31516 
L 465.686364 255.719096 
L 465.945987 255.110342 
L 466.20561 254.488337 
L 466.465233 253.852538 
L 466.724857 253.202423 
L 466.98448 252.537493 
L 467.244103 251.857275 
L 467.503726 251.16132 
L 467.76335 250.44921 
L 468.022973 249.720555 
L 468.282596 248.974998 
L 468.542219 248.212215 
L 468.801843 247.431913 
L 469.061466 246.633838 
L 469.321089 245.817771 
L 469.580713 244.98353 
L 469.840336 244.130972 
L 470.099959 243.259992 
L 470.359582 242.370524 
L 470.619206 241.462543 
L 470.878829 240.536066 
L 471.138452 239.591147 
L 471.398075 238.627882 
L 471.657699 237.64641 
L 471.917322 236.646907 
L 472.176945 235.629592 
L 472.436568 234.594723 
L 472.696192 233.542597 
L 472.955815 232.473552 
L 473.215438 231.387962 
L 473.475061 230.286239 
L 473.734685 229.168832 
L 473.994308 228.036228 
L 474.253931 226.888944 
L 474.513554 225.727534 
L 474.773178 224.552583 
L 475.032801 223.364708 
L 475.292424 222.164554 
L 475.552048 220.952793 
L 475.811671 219.730128 
L 476.071294 218.497283 
L 476.330917 217.255005 
L 476.590541 216.004065 
L 476.850164 214.745252 
L 477.109787 213.479374 
L 477.36941 212.207254 
L 477.629034 210.929729 
L 477.888657 209.647649 
L 478.14828 208.361872 
L 478.407903 207.073268 
L 478.667527 205.782709 
L 478.92715 204.491074 
L 479.186773 203.19924 
L 479.446396 201.908089 
L 479.70602 200.618496 
L 479.965643 199.331333 
L 480.225266 198.047467 
L 480.484889 196.767752 
L 480.744513 195.493036 
L 481.004136 194.224149 
L 481.263759 192.96191 
L 481.523382 191.707116 
L 481.783006 190.460548 
L 482.042629 189.222964 
L 482.302252 187.995097 
L 482.561876 186.777655 
L 482.821499 185.571318 
L 483.081122 184.376736 
L 483.340745 183.194527 
L 483.600369 182.025272 
L 483.859992 180.869521 
L 484.119615 179.727783 
L 484.379238 178.600526 
L 484.638862 177.488181 
L 484.898485 176.39113 
L 485.158108 175.309715 
L 485.417731 174.244229 
L 485.677355 173.194917 
L 485.936978 172.161975 
L 486.196601 171.14555 
L 486.456224 170.145733 
L 486.715848 169.162565 
L 486.975471 168.196033 
L 487.235094 167.246066 
L 487.494717 166.312541 
L 487.754341 165.395275 
L 488.013964 164.494029 
L 488.273587 163.608509 
L 488.53321 162.738361 
L 488.792834 161.883173 
L 489.052457 161.042476 
L 489.31208 160.215746 
L 489.571704 159.402399 
L 489.831327 158.601796 
L 490.09095 157.813244 
L 490.350573 157.035994 
L 490.610197 156.269246 
L 490.86982 155.512147 
L 491.129443 154.763794 
L 491.389066 154.023239 
L 491.64869 153.289483 
L 491.908313 152.56149 
L 492.167936 151.838177 
L 492.427559 151.118427 
L 492.687183 150.401086 
L 492.946806 149.684968 
L 493.206429 148.968858 
L 493.466052 148.251518 
L 493.725676 147.531685 
L 493.985299 146.808082 
L 494.244922 146.079418 
L 494.504545 145.34439 
L 494.764169 144.601694 
L 495.023792 143.850025 
L 495.283415 143.088082 
L 495.543038 142.314573 
L 495.802662 141.528221 
L 496.062285 140.72777 
L 496.321908 139.911987 
L 496.581532 139.079666 
L 496.841155 138.229641 
L 497.100778 137.360781 
L 497.360401 136.472003 
L 497.620025 135.562271 
L 497.879648 134.630608 
L 498.139271 133.676092 
L 498.398894 132.69787 
L 498.658518 131.695155 
L 498.918141 130.667237 
L 499.177764 129.613482 
L 499.437387 128.53334 
L 499.697011 127.426346 
L 499.956634 126.292126 
L 500.216257 125.130401 
L 500.47588 123.940987 
L 500.735504 122.723801 
L 500.995127 121.478863 
L 501.25475 120.206297 
L 501.514373 118.906335 
L 501.773997 117.579315 
L 502.03362 116.225688 
L 502.293243 114.846015 
L 502.552867 113.440965 
L 502.81249 112.011323 
L 503.072113 110.557983 
L 503.331736 109.081947 
L 503.59136 107.584331 
L 503.850983 106.066355 
L 504.110606 104.529346 
L 504.370229 102.974735 
L 504.629853 101.404054 
L 504.889476 99.818932 
L 505.149099 98.221092 
L 505.408722 96.612348 
L 505.668346 94.994601 
L 505.927969 93.369831 
L 506.187592 91.740098 
L 506.447215 90.10753 
L 506.706839 88.474322 
L 506.966462 86.842729 
L 507.226085 85.21506 
L 507.485708 83.59367 
L 507.745332 81.980956 
L 508.004955 80.379348 
L 508.264578 78.791303 
L 508.524201 77.219297 
L 508.783825 75.665818 
L 509.043448 74.133359 
L 509.303071 72.624412 
L 509.562695 71.141455 
L 509.822318 69.686953 
L 510.081941 68.263341 
L 510.341564 66.873023 
L 510.601188 65.518363 
L 510.860811 64.201676 
L 511.120434 62.925223 
L 511.380057 61.691202 
L 511.639681 60.501744 
L 511.899304 59.358901 
L 512.158927 58.264645 
L 512.41855 57.220859 
L 512.678174 56.229333 
L 512.937797 55.291756 
L 513.19742 54.409713 
L 513.457043 53.584676 
L 513.716667 52.818008 
L 513.97629 52.110949 
L 514.235913 51.464619 
L 514.495536 50.880013 
L 514.75516 50.357997 
L 515.014783 49.899308 
L 515.274406 49.504549 
L 515.534029 49.174191 
L 515.793653 48.908571 
L 516.053276 48.707891 
L 516.312899 48.572219 
L 516.572523 48.501487 
L 516.832146 48.495498 
L 517.091769 48.553922 
L 517.351392 48.676299 
L 517.611016 48.862047 
L 517.870639 49.110456 
L 518.130262 49.420699 
L 518.389885 49.791832 
L 518.649509 50.2228 
L 518.909132 50.712441 
L 519.168755 51.259492 
L 519.428378 51.862591 
L 519.688002 52.520288 
L 519.947625 53.231047 
L 520.207248 53.993252 
L 520.466871 54.805216 
L 520.726495 55.665185 
L 520.986118 56.571348 
L 521.245741 57.521838 
L 521.505364 58.514746 
L 521.764988 59.548121 
L 522.024611 60.619982 
L 522.284234 61.728322 
L 522.543857 62.871116 
L 522.803481 64.046327 
L 523.063104 65.251912 
L 523.322727 66.485829 
L 523.582351 67.746044 
L 523.841974 69.030534 
L 524.101597 70.337295 
L 524.36122 71.664347 
L 524.620844 73.009738 
L 524.880467 74.371547 
L 525.14009 75.747893 
L 525.399713 77.136934 
L 525.659337 78.536873 
L 525.91896 79.94596 
L 526.178583 81.362495 
L 526.438206 82.784829 
L 526.69783 84.211368 
L 526.957453 85.640573 
L 527.217076 87.070959 
L 527.476699 88.5011 
L 527.736323 89.929625 
L 527.995946 91.355218 
L 528.255569 92.776621 
L 528.515192 94.192629 
L 528.774816 95.602089 
L 529.034439 97.0039 
L 529.294062 98.39701 
L 529.553686 99.780415 
L 529.813309 101.153152 
L 530.072932 102.514304 
L 530.332555 103.862989 
L 530.592179 105.198362 
L 530.851802 106.51961 
L 531.111425 107.82595 
L 531.371048 109.116622 
L 531.630672 110.390891 
L 531.890295 111.648039 
L 532.149918 112.887365 
L 532.409541 114.10818 
L 532.669165 115.309803 
L 532.928788 116.49156 
L 533.188411 117.652781 
L 533.448034 118.792794 
L 533.707658 119.910927 
L 533.967281 121.006504 
L 534.226904 122.078842 
L 534.486527 123.127249 
L 534.746151 124.151025 
L 535.005774 125.14946 
L 535.265397 126.12183 
L 535.52502 127.067401 
L 535.784644 127.985425 
L 536.044267 128.875143 
L 536.30389 129.735784 
L 536.563514 130.566564 
L 536.823137 131.366691 
L 537.08276 132.135363 
L 537.342383 132.871771 
L 537.602007 133.575101 
L 537.86163 134.244534 
L 538.121253 134.879253 
L 538.380876 135.478441 
L 538.6405 136.041287 
L 538.900123 136.566988 
L 539.159746 137.054751 
L 539.419369 137.503799 
L 539.678993 137.913374 
L 539.938616 138.282739 
L 540.198239 138.611184 
L 540.457862 138.89803 
L 540.717486 139.142629 
L 540.977109 139.344375 
L 541.236732 139.502701 
L 541.496355 139.617089 
L 541.755979 139.687068 
L 542.015602 139.712223 
L 542.275225 139.692198 
L 542.534848 139.626696 
L 542.794472 139.515487 
L 543.054095 139.35841 
L 543.313718 139.155375 
L 543.573342 138.906367 
L 543.832965 138.61145 
L 544.092588 138.27077 
L 544.352211 137.884553 
L 544.611835 137.453112 
L 544.871458 136.97685 
L 545.131081 136.456256 
L 545.390704 135.891912 
L 545.650328 135.28449 
L 545.909951 134.634757 
L 546.169574 133.943573 
L 546.429197 133.21189 
L 546.688821 132.440758 
L 546.948444 131.631317 
L 547.208067 130.784802 
L 547.46769 129.902541 
L 547.727314 128.985951 
L 547.986937 128.036542 
L 548.24656 127.055908 
L 548.506183 126.045734 
L 548.765807 125.007785 
L 549.02543 123.943909 
L 549.285053 122.856032 
L 549.544676 121.746154 
L 549.8043 120.61635 
L 550.063923 119.468759 
L 550.323546 118.305588 
L 550.58317 117.129102 
L 550.842793 115.941623 
L 551.102416 114.745524 
L 551.362039 113.543223 
L 551.621663 112.337181 
L 551.881286 111.129895 
L 552.140909 109.923892 
L 552.400532 108.721726 
L 552.660156 107.525969 
L 552.919779 106.339207 
L 553.179402 105.164035 
L 553.439025 104.00305 
L 553.698649 102.858842 
L 553.958272 101.733995 
L 554.217895 100.631073 
L 554.477518 99.552618 
L 554.737142 98.501143 
L 554.996765 97.479125 
L 555.256388 96.488999 
L 555.516011 95.533152 
L 555.775635 94.613916 
L 556.035258 93.733565 
L 556.294881 92.894302 
L 556.554505 92.098262 
L 556.814128 91.347499 
L 557.073751 90.643984 
L 557.333374 89.989598 
L 557.592998 89.386129 
L 557.852621 88.835263 
L 558.112244 88.338583 
L 558.371867 87.897564 
L 558.631491 87.513565 
L 558.891114 87.187831 
L 559.150737 86.921483 
L 559.41036 86.715522 
L 559.669984 86.570818 
L 559.929607 86.488113 
L 560.18923 86.468017 
L 560.448853 86.511007 
L 560.708477 86.617424 
L 560.9681 86.787473 
L 561.227723 87.021222 
L 561.487346 87.318603 
L 561.74697 87.67941 
L 562.006593 88.103302 
L 562.266216 88.589804 
L 562.525839 89.138305 
L 562.785463 89.748064 
L 563.045086 90.418211 
L 563.304709 91.147752 
L 563.564333 91.935565 
L 563.823956 92.780413 
L 564.083579 93.680942 
L 564.343202 94.635688 
L 564.602826 95.643078 
L 564.862449 96.70144 
L 565.122072 97.809006 
L 565.381695 98.963917 
L 565.641319 100.16423 
L 565.900942 101.407924 
L 566.160565 102.692906 
L 566.420188 104.017018 
L 566.679812 105.378043 
L 566.939435 106.773712 
L 567.199058 108.201714 
L 567.458681 109.659698 
L 567.718305 111.145284 
L 567.977928 112.656069 
L 568.237551 114.189632 
L 568.497174 115.743545 
L 568.756798 117.31538 
L 569.016421 118.902711 
L 569.276044 120.503125 
L 569.535667 122.114229 
L 569.795291 123.733654 
L 570.054914 125.359066 
L 570.314537 126.988164 
L 570.574161 128.618695 
L 570.833784 130.248454 
L 571.093407 131.875291 
L 571.35303 133.497116 
L 571.612654 135.111905 
L 571.872277 136.717702 
L 572.1319 138.312626 
L 572.391523 139.894872 
L 572.651147 141.462717 
L 572.91077 143.014521 
L 573.170393 144.548733 
L 573.430016 146.063888 
L 573.68964 147.558615 
L 573.949263 149.031634 
L 574.208886 150.481762 
L 574.468509 151.907909 
L 574.728133 153.309082 
L 574.987756 154.684384 
L 575.247379 156.033016 
L 575.507002 157.354273 
L 575.766626 158.647547 
L 576.026249 159.912324 
L 576.285872 161.148184 
L 576.545495 162.354797 
L 576.805119 163.531928 
L 577.064742 164.679425 
L 577.324365 165.797225 
L 577.583989 166.88535 
L 577.843612 167.943901 
L 578.103235 168.973059 
L 578.362858 169.97308 
L 578.622482 170.944294 
L 578.882105 171.887097 
L 579.141728 172.801956 
L 579.401351 173.689398 
L 579.660975 174.550009 
L 579.920598 175.384432 
L 580.180221 176.193361 
L 580.439844 176.977539 
L 580.699468 177.737753 
L 580.959091 178.474831 
L 581.218714 179.189638 
L 581.478337 179.883073 
L 581.737961 180.556062 
L 581.997584 181.209558 
L 582.257207 181.844536 
L 582.51683 182.461988 
L 582.776454 183.06292 
L 583.036077 183.648349 
L 583.2957 184.219296 
L 583.555324 184.77679 
L 583.814947 185.321853 
L 584.07457 185.855508 
L 584.334193 186.378768 
L 584.593817 186.892634 
L 584.85344 187.398094 
L 585.113063 187.896118 
L 585.372686 188.387654 
L 585.63231 188.873628 
L 585.891933 189.354937 
L 586.151556 189.832451 
L 586.411179 190.307004 
L 586.670803 190.779397 
L 586.930426 191.250395 
L 587.190049 191.72072 
L 587.449672 192.191054 
L 587.709296 192.662035 
L 587.968919 193.134255 
L 588.228542 193.608257 
L 588.488165 194.084537 
L 588.747789 194.563539 
L 589.007412 195.045658 
L 589.267035 195.531234 
L 589.526658 196.020554 
L 589.786282 196.513853 
L 590.045905 197.011311 
L 590.305528 197.513053 
L 590.565152 198.019151 
L 590.824775 198.529623 
L 591.084398 199.044434 
L 591.344021 199.563496 
L 591.603645 200.08667 
L 591.863268 200.613765 
L 592.122891 201.144544 
L 592.382514 201.678721 
L 592.642138 202.215964 
L 592.901761 202.755898 
L 593.161384 203.298107 
L 593.421007 203.842136 
L 593.680631 204.387494 
L 593.940254 204.933655 
L 594.199877 205.480064 
L 594.4595 206.026136 
L 594.719124 206.571264 
L 594.978747 207.114817 
L 595.23837 207.656148 
L 595.497993 208.194593 
L 595.757617 208.729479 
L 596.01724 209.260124 
L 596.276863 209.785841 
L 596.536486 210.305944 
L 596.79611 210.819749 
L 597.055733 211.326577 
L 597.315356 211.82576 
L 597.57498 212.316643 
L 597.834603 212.798586 
L 598.094226 213.270971 
L 598.353849 213.7332 
L 598.613473 214.1847 
L 598.873096 214.624929 
L 599.132719 215.053373 
L 599.392342 215.469552 
L 599.651966 215.873023 
L 599.911589 216.263378 
L 600.171212 216.64025 
L 600.430835 217.003312 
L 600.690459 217.352279 
L 600.950082 217.68691 
L 601.209705 218.007009 
L 601.469328 218.312423 
L 601.728952 218.603048 
L 601.988575 218.878821 
L 602.248198 219.139729 
L 602.507821 219.385802 
L 602.767445 219.617116 
L 603.027068 219.833791 
L 603.286691 220.035991 
L 603.546314 220.223922 
L 603.805938 220.397831 
L 604.065561 220.558006 
L 604.325184 220.704772 
L 604.584808 220.83849 
L 604.844431 220.959557 
L 605.104054 221.068401 
L 605.363677 221.165482 
L 605.623301 221.251287 
L 605.882924 221.326329 
L 606.142547 221.391146 
L 606.40217 221.446295 
L 606.661794 221.492354 
L 606.921417 221.529917 
L 607.18104 221.559589 
L 607.440663 221.581991 
L 607.700287 221.597751 
L 607.95991 221.607504 
L 608.219533 221.611889 
L 608.479156 221.611548 
L 608.73878 221.607125 
L 608.998403 221.599258 
L 609.258026 221.588586 
L 609.517649 221.57574 
L 609.777273 221.561343 
L 610.036896 221.546011 
L 610.296519 221.530348 
L 610.556143 221.514948 
L 610.815766 221.500392 
L 611.075389 221.487245 
L 611.335012 221.476058 
L 611.594636 221.467369 
L 611.854259 221.461695 
L 612.113882 221.459539 
L 612.373505 221.461386 
L 612.633129 221.467704 
L 612.892752 221.478942 
L 613.152375 221.49553 
L 613.411998 221.517883 
L 613.671622 221.546396 
L 613.931245 221.581446 
L 614.190868 221.623396 
L 614.450491 221.672587 
L 614.710115 221.729347 
L 614.969738 221.793988 
L 615.229361 221.866804 
L 615.488984 221.948076 
L 615.748608 222.038071 
L 616.008231 222.13704 
L 616.267854 222.245224 
L 616.527477 222.362848 
L 616.787101 222.490128 
L 617.046724 222.627268 
L 617.306347 222.774462 
L 617.565971 222.931892 
L 617.825594 223.099733 
L 618.085217 223.278149 
L 618.34484 223.467298 
L 618.604464 223.667329 
L 618.864087 223.878381 
L 619.12371 224.100591 
L 619.383333 224.334084 
L 619.642957 224.578981 
L 619.90258 224.835397 
L 620.162203 225.10344 
L 620.421826 225.38321 
L 620.68145 225.674805 
L 620.941073 225.978311 
L 621.200696 226.293814 
L 621.460319 226.621389 
L 621.719943 226.961106 
L 621.979566 227.31303 
L 622.239189 227.677215 
L 622.498812 228.053711 
L 622.758436 228.44256 
L 623.018059 228.843794 
L 623.277682 229.25744 
L 623.537305 229.683513 
L 623.796929 230.12202 
L 624.056552 230.572961 
L 624.316175 231.036323 
L 624.575799 231.512083 
L 624.835422 232.000209 
L 625.095045 232.500658 
L 625.354668 233.013373 
L 625.614292 233.538288 
L 625.873915 234.075324 
L 626.133538 234.624389 
L 626.393161 235.185379 
L 626.652785 235.758178 
L 626.912408 236.342654 
L 627.172031 236.938665 
L 627.431654 237.546054 
L 627.691278 238.164651 
L 627.950901 238.794272 
L 628.210524 239.434719 
L 628.470147 240.085781 
L 628.729771 240.747235 
L 628.989394 241.418843 
L 629.249017 242.100353 
L 629.50864 242.791503 
L 629.768264 243.492015 
L 630.027887 244.2016 
L 630.28751 244.919958 
L 630.547133 245.646775 
L 630.806757 246.381727 
L 631.06638 247.124478 
L 631.326003 247.874682 
L 631.585627 248.631984 
L 631.84525 249.396017 
L 632.104873 250.166407 
L 632.364496 250.942769 
L 632.62412 251.724713 
L 632.883743 252.511838 
L 633.143366 253.303739 
L 633.402989 254.100003 
L 633.662613 254.900213 
L 633.922236 255.703943 
L 634.181859 256.510768 
L 634.441482 257.320253 
L 634.701106 258.131965 
L 634.960729 258.945464 
L 635.220352 259.760311 
L 635.479975 260.576064 
L 635.739599 261.392279 
L 635.999222 262.208513 
L 636.258845 263.024323 
L 636.518468 263.839268 
L 636.778092 264.652905 
L 637.037715 265.464796 
L 637.297338 266.274504 
L 637.556962 267.081597 
L 637.816585 267.885643 
L 638.076208 268.686218 
L 638.335831 269.4829 
L 638.595455 270.275273 
L 638.855078 271.062928 
L 639.114701 271.84546 
L 639.374324 272.622472 
L 639.633948 273.393575 
L 639.893571 274.158387 
L 640.153194 274.916532 
L 640.412817 275.667647 
L 640.672441 276.411374 
L 640.932064 277.147367 
L 641.191687 277.87529 
L 641.45131 278.594815 
L 641.710934 279.305629 
L 641.970557 280.007425 
L 642.23018 280.699912 
L 642.489803 281.382808 
L 642.749427 282.055846 
L 643.00905 282.718769 
L 643.268673 283.371334 
L 643.528296 284.013311 
L 643.78792 284.644483 
L 644.047543 285.264648 
L 644.307166 285.873617 
L 644.56679 286.471214 
L 644.826413 287.057278 
L 645.086036 287.631664 
L 645.345659 288.194238 
L 645.605283 288.744883 
L 645.864906 289.283496 
L 646.124529 289.809986 
L 646.384152 290.32428 
L 646.643776 290.826318 
L 646.903399 291.316053 
L 647.163022 291.793452 
L 647.422645 292.258499 
L 647.682269 292.711187 
L 647.941892 293.151526 
L 648.201515 293.579537 
L 648.461138 293.995255 
L 648.720762 294.398726 
L 648.980385 294.790009 
L 649.240008 295.169175 
L 649.499631 295.536305 
L 649.759255 295.891491 
L 650.018878 296.234835 
L 650.278501 296.566449 
L 650.538124 296.886454 
L 650.797748 297.194978 
L 651.057371 297.492159 
L 651.316994 297.778141 
L 651.576618 298.053074 
L 651.836241 298.317116 
L 652.095864 298.570429 
L 652.355487 298.813179 
L 652.615111 299.045536 
L 652.874734 299.267676 
L 653.134357 299.479774 
L 653.39398 299.68201 
L 653.653604 299.874564 
L 653.913227 300.057616 
L 654.17285 300.231349 
L 654.432473 300.395941 
L 654.692097 300.551574 
L 654.95172 300.698425 
L 655.211343 300.83667 
L 655.470966 300.966481 
L 655.73059 301.08803 
L 655.990213 301.201482 
L 656.249836 301.307001 
L 656.509459 301.404743 
L 656.769083 301.494862 
L 657.028706 301.577507 
L 657.288329 301.65282 
L 657.547952 301.720938 
L 657.807576 301.781992 
L 658.067199 301.836109 
L 658.326822 301.883407 
L 658.586446 301.924 
L 658.846069 301.957995 
L 659.105692 301.985493 
L 659.365315 302.006589 
L 659.624939 302.021372 
L 659.884562 302.029925 
L 660.144185 302.032326 
L 660.403808 302.028648 
L 660.663432 302.018957 
L 660.923055 302.003316 
L 661.182678 301.981785 
L 661.442301 301.954417 
L 661.701925 301.921262 
L 661.961548 301.88237 
L 662.221171 301.837786 
L 662.480794 301.787552 
L 662.740418 301.731712 
L 663.000041 301.670306 
L 663.259664 301.603376 
L 663.519287 301.530964 
L 663.778911 301.453112 
L 664.038534 301.369866 
L 664.298157 301.281272 
L 664.557781 301.18738 
L 664.817404 301.088246 
L 665.077027 300.983928 
L 665.33665 300.87449 
L 665.596274 300.760002 
L 665.855897 300.640541 
L 666.11552 300.51619 
L 666.375143 300.387041 
L 666.634767 300.253194 
L 666.89439 300.114758 
L 667.154013 299.971851 
L 667.413636 299.824603 
L 667.67326 299.673153 
L 667.932883 299.517649 
L 668.192506 299.358254 
L 668.452129 299.195139 
L 668.711753 299.028489 
L 668.971376 298.858501 
L 669.230999 298.685383 
L 669.490622 298.509355 
L 669.750246 298.33065 
L 670.009869 298.149513 
L 670.269492 297.966201 
L 670.529115 297.780981 
L 670.788739 297.594133 
L 671.048362 297.405948 
L 671.307985 297.216728 
L 671.567609 297.026783 
L 671.827232 296.836435 
L 672.086855 296.646014 
L 672.346478 296.455858 
L 672.606102 296.266312 
L 672.865725 296.077727 
L 673.125348 295.890463 
L 673.384971 295.704881 
L 673.644595 295.521347 
L 673.904218 295.340229 
L 674.163841 295.161899 
L 674.423464 294.986726 
L 674.683088 294.815081 
L 674.942711 294.64733 
L 675.202334 294.48384 
L 675.461957 294.324969 
L 675.721581 294.171072 
L 675.981204 294.022497 
L 676.240827 293.879583 
L 676.50045 293.74266 
L 676.760074 293.612047 
L 677.019697 293.488051 
L 677.27932 293.370967 
L 677.538943 293.261075 
L 677.798567 293.15864 
L 678.05819 293.06391 
L 678.317813 292.977118 
L 678.577437 292.898476 
L 678.83706 292.828178 
L 679.096683 292.7664 
L 679.356306 292.713295 
L 679.61593 292.668996 
L 679.875553 292.633614 
L 680.135176 292.607239 
L 680.394799 292.589937 
L 680.654423 292.581752 
L 680.914046 292.582706 
L 681.173669 292.592795 
L 681.433292 292.611996 
L 681.692916 292.64026 
L 681.952539 292.677516 
L 682.212162 292.723673 
L 682.471785 292.778615 
L 682.731409 292.842205 
L 682.991032 292.914287 
L 683.250655 292.994683 
L 683.510278 293.083195 
L 683.769902 293.179609 
L 684.029525 293.283689 
L 684.289148 293.395186 
L 684.548771 293.513833 
L 684.808395 293.639349 
L 685.068018 293.771438 
L 685.327641 293.909793 
L 685.587265 294.054095 
L 685.846888 294.204014 
L 686.106511 294.359213 
L 686.366134 294.519345 
L 686.625758 294.684058 
L 686.885381 294.852996 
L 687.145004 295.025796 
L 687.404627 295.202096 
L 687.664251 295.38153 
L 687.923874 295.563734 
L 688.183497 295.748344 
L 688.44312 295.934998 
L 688.702744 296.123338 
L 688.962367 296.313011 
L 689.22199 296.503669 
L 689.481613 296.694971 
L 689.741237 296.886584 
L 690.00086 297.078182 
L 690.260483 297.26945 
L 690.520106 297.460081 
L 690.77973 297.649782 
L 691.039353 297.838269 
L 691.298976 298.02527 
L 691.5586 298.210527 
L 691.818223 298.393793 
L 692.077846 298.574836 
L 692.337469 298.753437 
L 692.597093 298.929391 
L 692.856716 299.102508 
L 693.116339 299.272609 
L 693.375962 299.439533 
L 693.635586 299.603131 
L 693.895209 299.763268 
L 694.154832 299.919824 
L 694.414455 300.072693 
L 694.674079 300.221782 
L 694.933702 300.36701 
L 695.193325 300.508311 
L 695.452948 300.645631 
L 695.712572 300.778928 
L 695.972195 300.908171 
L 696.231818 301.033343 
z
" style="fill:#aaaaff;"/>
   </g>
   <g id="matplotlib.axis_3">
    <g id="xtick_6">
     <g id="line2d_14">
      <g>
       <use style="stroke:#000000;stroke-width:0.8;" x="447.675" xlink:href="#m1d91d7ce2b" y="303.5"/>
      </g>
     </g>
     <g id="text_15">
      <!-- 2500 -->
      <g transform="translate(429.86 321.137812)scale(0.14 -0.14)">
       <use xlink:href="#DejaVuSans-50"/>
       <use x="63.623047" xlink:href="#DejaVuSans-53"/>
       <use x="127.246094" xlink:href="#DejaVuSans-48"/>
       <use x="190.869141" xlink:href="#DejaVuSans-48"/>
      </g>
     </g>
    </g>
    <g id="xtick_7">
     <g id="line2d_15">
      <g>
       <use style="stroke:#000000;stroke-width:0.8;" x="501.709091" xlink:href="#m1d91d7ce2b" y="303.5"/>
      </g>
     </g>
     <g id="text_16">
      <!-- 5000 -->
      <g transform="translate(483.894091 321.137812)scale(0.14 -0.14)">
       <use xlink:href="#DejaVuSans-53"/>
       <use x="63.623047" xlink:href="#DejaVuSans-48"/>
       <use x="127.246094" xlink:href="#DejaVuSans-48"/>
       <use x="190.869141" xlink:href="#DejaVuSans-48"/>
      </g>
     </g>
    </g>
    <g id="xtick_8">
     <g id="line2d_16">
      <g>
       <use style="stroke:#000000;stroke-width:0.8;" x="555.743182" xlink:href="#m1d91d7ce2b" y="303.5"/>
      </g>
     </g>
     <g id="text_17">
      <!-- 7500 -->
      <g transform="translate(537.928182 321.137812)scale(0.14 -0.14)">
       <use xlink:href="#DejaVuSans-55"/>
       <use x="63.623047" xlink:href="#DejaVuSans-53"/>
       <use x="127.246094" xlink:href="#DejaVuSans-48"/>
       <use x="190.869141" xlink:href="#DejaVuSans-48"/>
      </g>
     </g>
    </g>
    <g id="xtick_9">
     <g id="line2d_17">
      <g>
       <use style="stroke:#000000;stroke-width:0.8;" x="609.777273" xlink:href="#m1d91d7ce2b" y="303.5"/>
      </g>
     </g>
     <g id="text_18">
      <!-- 10000 -->
      <g transform="translate(587.508523 321.137812)scale(0.14 -0.14)">
       <use xlink:href="#DejaVuSans-49"/>
       <use x="63.623047" xlink:href="#DejaVuSans-48"/>
       <use x="127.246094" xlink:href="#DejaVuSans-48"/>
       <use x="190.869141" xlink:href="#DejaVuSans-48"/>
       <use x="254.492188" xlink:href="#DejaVuSans-48"/>
      </g>
     </g>
    </g>
    <g id="xtick_10">
     <g id="line2d_18">
      <g>
       <use style="stroke:#000000;stroke-width:0.8;" x="663.811364" xlink:href="#m1d91d7ce2b" y="303.5"/>
      </g>
     </g>
     <g id="text_19">
      <!-- 12500 -->
      <g transform="translate(641.542614 321.137812)scale(0.14 -0.14)">
       <use xlink:href="#DejaVuSans-49"/>
       <use x="63.623047" xlink:href="#DejaVuSans-50"/>
       <use x="127.246094" xlink:href="#DejaVuSans-53"/>
       <use x="190.869141" xlink:href="#DejaVuSans-48"/>
       <use x="254.492188" xlink:href="#DejaVuSans-48"/>
      </g>
     </g>
    </g>
    <g id="text_20">
     <!-- Annual flow (Million $m^3$) -->
     <g transform="translate(470.63 341.521875)scale(0.16 -0.16)">
      <use transform="translate(0 0.765625)" xlink:href="#DejaVuSans-65"/>
      <use transform="translate(68.408203 0.765625)" xlink:href="#DejaVuSans-110"/>
      <use transform="translate(131.787109 0.765625)" xlink:href="#DejaVuSans-110"/>
      <use transform="translate(195.166016 0.765625)" xlink:href="#DejaVuSans-117"/>
      <use transform="translate(258.544922 0.765625)" xlink:href="#DejaVuSans-97"/>
      <use transform="translate(319.824219 0.765625)" xlink:href="#DejaVuSans-108"/>
      <use transform="translate(347.607422 0.765625)" xlink:href="#DejaVuSans-32"/>
      <use transform="translate(379.394531 0.765625)" xlink:href="#DejaVuSans-102"/>
      <use transform="translate(414.599609 0.765625)" xlink:href="#DejaVuSans-108"/>
      <use transform="translate(442.382812 0.765625)" xlink:href="#DejaVuSans-111"/>
      <use transform="translate(503.564453 0.765625)" xlink:href="#DejaVuSans-119"/>
      <use transform="translate(585.351562 0.765625)" xlink:href="#DejaVuSans-32"/>
      <use transform="translate(617.138672 0.765625)" xlink:href="#DejaVuSans-40"/>
      <use transform="translate(656.152344 0.765625)" xlink:href="#DejaVuSans-77"/>
      <use transform="translate(742.431641 0.765625)" xlink:href="#DejaVuSans-105"/>
      <use transform="translate(770.214844 0.765625)" xlink:href="#DejaVuSans-108"/>
      <use transform="translate(797.998047 0.765625)" xlink:href="#DejaVuSans-108"/>
      <use transform="translate(825.78125 0.765625)" xlink:href="#DejaVuSans-105"/>
      <use transform="translate(853.564453 0.765625)" xlink:href="#DejaVuSans-111"/>
      <use transform="translate(914.746094 0.765625)" xlink:href="#DejaVuSans-110"/>
      <use transform="translate(978.125 0.765625)" xlink:href="#DejaVuSans-32"/>
      <use transform="translate(1009.912109 0.765625)" xlink:href="#DejaVuSans-Oblique-109"/>
      <use transform="translate(1111.974115 39.046875)scale(0.7)" xlink:href="#DejaVuSans-51"/>
      <use transform="translate(1159.244622 0.765625)" xlink:href="#DejaVuSans-41"/>
     </g>
    </g>
   </g>
   <g id="matplotlib.axis_4">
    <g id="ytick_8">
     <g id="line2d_19">
      <g>
       <use style="stroke:#000000;stroke-width:0.8;" x="423.9" xlink:href="#m2e54faf5df" y="303.5"/>
      </g>
     </g>
     <g id="text_21">
      <!-- 0.000000 -->
      <g transform="translate(350.098125 308.818906)scale(0.14 -0.14)">
       <defs>
        <path d="M 10.6875 12.40625 
L 21 12.40625 
L 21 0 
L 10.6875 0 
z
" id="DejaVuSans-46"/>
       </defs>
       <use xlink:href="#DejaVuSans-48"/>
       <use x="63.623047" xlink:href="#DejaVuSans-46"/>
       <use x="95.410156" xlink:href="#DejaVuSans-48"/>
       <use x="159.033203" xlink:href="#DejaVuSans-48"/>
       <use x="222.65625" xlink:href="#DejaVuSans-48"/>
       <use x="286.279297" xlink:href="#DejaVuSans-48"/>
       <use x="349.902344" xlink:href="#DejaVuSans-48"/>
       <use x="413.525391" xlink:href="#DejaVuSans-48"/>
      </g>
     </g>
    </g>
    <g id="ytick_9">
     <g id="line2d_20">
      <g>
       <use style="stroke:#000000;stroke-width:0.8;" x="423.9" xlink:href="#m2e54faf5df" y="273.679915"/>
      </g>
     </g>
     <g id="text_22">
      <!-- 0.000025 -->
      <g transform="translate(350.098125 278.998821)scale(0.14 -0.14)">
       <use xlink:href="#DejaVuSans-48"/>
       <use x="63.623047" xlink:href="#DejaVuSans-46"/>
       <use x="95.410156" xlink:href="#DejaVuSans-48"/>
       <use x="159.033203" xlink:href="#DejaVuSans-48"/>
       <use x="222.65625" xlink:href="#DejaVuSans-48"/>
       <use x="286.279297" xlink:href="#DejaVuSans-48"/>
       <use x="349.902344" xlink:href="#DejaVuSans-50"/>
       <use x="413.525391" xlink:href="#DejaVuSans-53"/>
      </g>
     </g>
    </g>
    <g id="ytick_10">
     <g id="line2d_21">
      <g>
       <use style="stroke:#000000;stroke-width:0.8;" x="423.9" xlink:href="#m2e54faf5df" y="243.85983"/>
      </g>
     </g>
     <g id="text_23">
      <!-- 0.000050 -->
      <g transform="translate(350.098125 249.178736)scale(0.14 -0.14)">
       <use xlink:href="#DejaVuSans-48"/>
       <use x="63.623047" xlink:href="#DejaVuSans-46"/>
       <use x="95.410156" xlink:href="#DejaVuSans-48"/>
       <use x="159.033203" xlink:href="#DejaVuSans-48"/>
       <use x="222.65625" xlink:href="#DejaVuSans-48"/>
       <use x="286.279297" xlink:href="#DejaVuSans-48"/>
       <use x="349.902344" xlink:href="#DejaVuSans-53"/>
       <use x="413.525391" xlink:href="#DejaVuSans-48"/>
      </g>
     </g>
    </g>
    <g id="ytick_11">
     <g id="line2d_22">
      <g>
       <use style="stroke:#000000;stroke-width:0.8;" x="423.9" xlink:href="#m2e54faf5df" y="214.039745"/>
      </g>
     </g>
     <g id="text_24">
      <!-- 0.000075 -->
      <g transform="translate(350.098125 219.358651)scale(0.14 -0.14)">
       <use xlink:href="#DejaVuSans-48"/>
       <use x="63.623047" xlink:href="#DejaVuSans-46"/>
       <use x="95.410156" xlink:href="#DejaVuSans-48"/>
       <use x="159.033203" xlink:href="#DejaVuSans-48"/>
       <use x="222.65625" xlink:href="#DejaVuSans-48"/>
       <use x="286.279297" xlink:href="#DejaVuSans-48"/>
       <use x="349.902344" xlink:href="#DejaVuSans-55"/>
       <use x="413.525391" xlink:href="#DejaVuSans-53"/>
      </g>
     </g>
    </g>
    <g id="ytick_12">
     <g id="line2d_23">
      <g>
       <use style="stroke:#000000;stroke-width:0.8;" x="423.9" xlink:href="#m2e54faf5df" y="184.21966"/>
      </g>
     </g>
     <g id="text_25">
      <!-- 0.000100 -->
      <g transform="translate(350.098125 189.538566)scale(0.14 -0.14)">
       <use xlink:href="#DejaVuSans-48"/>
       <use x="63.623047" xlink:href="#DejaVuSans-46"/>
       <use x="95.410156" xlink:href="#DejaVuSans-48"/>
       <use x="159.033203" xlink:href="#DejaVuSans-48"/>
       <use x="222.65625" xlink:href="#DejaVuSans-48"/>
       <use x="286.279297" xlink:href="#DejaVuSans-49"/>
       <use x="349.902344" xlink:href="#DejaVuSans-48"/>
       <use x="413.525391" xlink:href="#DejaVuSans-48"/>
      </g>
     </g>
    </g>
    <g id="ytick_13">
     <g id="line2d_24">
      <g>
       <use style="stroke:#000000;stroke-width:0.8;" x="423.9" xlink:href="#m2e54faf5df" y="154.399575"/>
      </g>
     </g>
     <g id="text_26">
      <!-- 0.000125 -->
      <g transform="translate(350.098125 159.718481)scale(0.14 -0.14)">
       <use xlink:href="#DejaVuSans-48"/>
       <use x="63.623047" xlink:href="#DejaVuSans-46"/>
       <use x="95.410156" xlink:href="#DejaVuSans-48"/>
       <use x="159.033203" xlink:href="#DejaVuSans-48"/>
       <use x="222.65625" xlink:href="#DejaVuSans-48"/>
       <use x="286.279297" xlink:href="#DejaVuSans-49"/>
       <use x="349.902344" xlink:href="#DejaVuSans-50"/>
       <use x="413.525391" xlink:href="#DejaVuSans-53"/>
      </g>
     </g>
    </g>
    <g id="ytick_14">
     <g id="line2d_25">
      <g>
       <use style="stroke:#000000;stroke-width:0.8;" x="423.9" xlink:href="#m2e54faf5df" y="124.579489"/>
      </g>
     </g>
     <g id="text_27">
      <!-- 0.000150 -->
      <g transform="translate(350.098125 129.898396)scale(0.14 -0.14)">
       <use xlink:href="#DejaVuSans-48"/>
       <use x="63.623047" xlink:href="#DejaVuSans-46"/>
       <use x="95.410156" xlink:href="#DejaVuSans-48"/>
       <use x="159.033203" xlink:href="#DejaVuSans-48"/>
       <use x="222.65625" xlink:href="#DejaVuSans-48"/>
       <use x="286.279297" xlink:href="#DejaVuSans-49"/>
       <use x="349.902344" xlink:href="#DejaVuSans-53"/>
       <use x="413.525391" xlink:href="#DejaVuSans-48"/>
      </g>
     </g>
    </g>
    <g id="ytick_15">
     <g id="line2d_26">
      <g>
       <use style="stroke:#000000;stroke-width:0.8;" x="423.9" xlink:href="#m2e54faf5df" y="94.759404"/>
      </g>
     </g>
     <g id="text_28">
      <!-- 0.000175 -->
      <g transform="translate(350.098125 100.078311)scale(0.14 -0.14)">
       <use xlink:href="#DejaVuSans-48"/>
       <use x="63.623047" xlink:href="#DejaVuSans-46"/>
       <use x="95.410156" xlink:href="#DejaVuSans-48"/>
       <use x="159.033203" xlink:href="#DejaVuSans-48"/>
       <use x="222.65625" xlink:href="#DejaVuSans-48"/>
       <use x="286.279297" xlink:href="#DejaVuSans-49"/>
       <use x="349.902344" xlink:href="#DejaVuSans-55"/>
       <use x="413.525391" xlink:href="#DejaVuSans-53"/>
      </g>
     </g>
    </g>
    <g id="ytick_16">
     <g id="line2d_27">
      <g>
       <use style="stroke:#000000;stroke-width:0.8;" x="423.9" xlink:href="#m2e54faf5df" y="64.939319"/>
      </g>
     </g>
     <g id="text_29">
      <!-- 0.000200 -->
      <g transform="translate(350.098125 70.258226)scale(0.14 -0.14)">
       <use xlink:href="#DejaVuSans-48"/>
       <use x="63.623047" xlink:href="#DejaVuSans-46"/>
       <use x="95.410156" xlink:href="#DejaVuSans-48"/>
       <use x="159.033203" xlink:href="#DejaVuSans-48"/>
       <use x="222.65625" xlink:href="#DejaVuSans-48"/>
       <use x="286.279297" xlink:href="#DejaVuSans-50"/>
       <use x="349.902344" xlink:href="#DejaVuSans-48"/>
       <use x="413.525391" xlink:href="#DejaVuSans-48"/>
      </g>
     </g>
    </g>
   </g>
   <g id="line2d_28">
    <path clip-path="url(#pe060fc1fe0)" d="M 520.822178 303.5 
L 520.822178 41.083251 
" style="fill:none;stroke:#000000;stroke-linecap:square;stroke-width:1.5;"/>
   </g>
   <g id="patch_18">
    <path d="M 423.9 303.5 
L 423.9 41.083251 
" style="fill:none;stroke:#000000;stroke-linecap:square;stroke-linejoin:miter;stroke-width:0.8;"/>
   </g>
   <g id="patch_19">
    <path d="M 709.2 303.5 
L 709.2 41.083251 
" style="fill:none;stroke:#000000;stroke-linecap:square;stroke-linejoin:miter;stroke-width:0.8;"/>
   </g>
   <g id="patch_20">
    <path d="M 423.9 303.5 
L 709.2 303.5 
" style="fill:none;stroke:#000000;stroke-linecap:square;stroke-linejoin:miter;stroke-width:0.8;"/>
   </g>
   <g id="patch_21">
    <path d="M 423.9 41.083251 
L 709.2 41.083251 
" style="fill:none;stroke:#000000;stroke-linecap:square;stroke-linejoin:miter;stroke-width:0.8;"/>
   </g>
  </g>
  <g id="text_30">
   <!-- Distribution of annual flows (entire record) -->
   <g transform="translate(168.578438 20.877187)scale(0.18 -0.18)">
    <defs>
     <path d="M 41.109375 46.296875 
Q 39.59375 47.171875 37.8125 47.578125 
Q 36.03125 48 33.890625 48 
Q 26.265625 48 22.1875 43.046875 
Q 18.109375 38.09375 18.109375 28.8125 
L 18.109375 0 
L 9.078125 0 
L 9.078125 54.6875 
L 18.109375 54.6875 
L 18.109375 46.1875 
Q 20.953125 51.171875 25.484375 53.578125 
Q 30.03125 56 36.53125 56 
Q 37.453125 56 38.578125 55.875 
Q 39.703125 55.765625 41.0625 55.515625 
z
" id="DejaVuSans-114"/>
     <path d="M 48.6875 27.296875 
Q 48.6875 37.203125 44.609375 42.84375 
Q 40.53125 48.484375 33.40625 48.484375 
Q 26.265625 48.484375 22.1875 42.84375 
Q 18.109375 37.203125 18.109375 27.296875 
Q 18.109375 17.390625 22.1875 11.75 
Q 26.265625 6.109375 33.40625 6.109375 
Q 40.53125 6.109375 44.609375 11.75 
Q 48.6875 17.390625 48.6875 27.296875 
z
M 18.109375 46.390625 
Q 20.953125 51.265625 25.265625 53.625 
Q 29.59375 56 35.59375 56 
Q 45.5625 56 51.78125 48.09375 
Q 58.015625 40.1875 58.015625 27.296875 
Q 58.015625 14.40625 51.78125 6.484375 
Q 45.5625 -1.421875 35.59375 -1.421875 
Q 29.59375 -1.421875 25.265625 0.953125 
Q 20.953125 3.328125 18.109375 8.203125 
L 18.109375 0 
L 9.078125 0 
L 9.078125 75.984375 
L 18.109375 75.984375 
z
" id="DejaVuSans-98"/>
     <path d="M 48.78125 52.59375 
L 48.78125 44.1875 
Q 44.96875 46.296875 41.140625 47.34375 
Q 37.3125 48.390625 33.40625 48.390625 
Q 24.65625 48.390625 19.8125 42.84375 
Q 14.984375 37.3125 14.984375 27.296875 
Q 14.984375 17.28125 19.8125 11.734375 
Q 24.65625 6.203125 33.40625 6.203125 
Q 37.3125 6.203125 41.140625 7.25 
Q 44.96875 8.296875 48.78125 10.40625 
L 48.78125 2.09375 
Q 45.015625 0.34375 40.984375 -0.53125 
Q 36.96875 -1.421875 32.421875 -1.421875 
Q 20.0625 -1.421875 12.78125 6.34375 
Q 5.515625 14.109375 5.515625 27.296875 
Q 5.515625 40.671875 12.859375 48.328125 
Q 20.21875 56 33.015625 56 
Q 37.15625 56 41.109375 55.140625 
Q 45.0625 54.296875 48.78125 52.59375 
z
" id="DejaVuSans-99"/>
     <path d="M 45.40625 46.390625 
L 45.40625 75.984375 
L 54.390625 75.984375 
L 54.390625 0 
L 45.40625 0 
L 45.40625 8.203125 
Q 42.578125 3.328125 38.25 0.953125 
Q 33.9375 -1.421875 27.875 -1.421875 
Q 17.96875 -1.421875 11.734375 6.484375 
Q 5.515625 14.40625 5.515625 27.296875 
Q 5.515625 40.1875 11.734375 48.09375 
Q 17.96875 56 27.875 56 
Q 33.9375 56 38.25 53.625 
Q 42.578125 51.265625 45.40625 46.390625 
z
M 14.796875 27.296875 
Q 14.796875 17.390625 18.875 11.75 
Q 22.953125 6.109375 30.078125 6.109375 
Q 37.203125 6.109375 41.296875 11.75 
Q 45.40625 17.390625 45.40625 27.296875 
Q 45.40625 37.203125 41.296875 42.84375 
Q 37.203125 48.484375 30.078125 48.484375 
Q 22.953125 48.484375 18.875 42.84375 
Q 14.796875 37.203125 14.796875 27.296875 
z
" id="DejaVuSans-100"/>
    </defs>
    <use xlink:href="#DejaVuSans-68"/>
    <use x="77.001953" xlink:href="#DejaVuSans-105"/>
    <use x="104.785156" xlink:href="#DejaVuSans-115"/>
    <use x="156.884766" xlink:href="#DejaVuSans-116"/>
    <use x="196.09375" xlink:href="#DejaVuSans-114"/>
    <use x="237.207031" xlink:href="#DejaVuSans-105"/>
    <use x="264.990234" xlink:href="#DejaVuSans-98"/>
    <use x="328.466797" xlink:href="#DejaVuSans-117"/>
    <use x="391.845703" xlink:href="#DejaVuSans-116"/>
    <use x="431.054688" xlink:href="#DejaVuSans-105"/>
    <use x="458.837891" xlink:href="#DejaVuSans-111"/>
    <use x="520.019531" xlink:href="#DejaVuSans-110"/>
    <use x="583.398438" xlink:href="#DejaVuSans-32"/>
    <use x="615.185547" xlink:href="#DejaVuSans-111"/>
    <use x="676.367188" xlink:href="#DejaVuSans-102"/>
    <use x="711.572266" xlink:href="#DejaVuSans-32"/>
    <use x="743.359375" xlink:href="#DejaVuSans-97"/>
    <use x="804.638672" xlink:href="#DejaVuSans-110"/>
    <use x="868.017578" xlink:href="#DejaVuSans-110"/>
    <use x="931.396484" xlink:href="#DejaVuSans-117"/>
    <use x="994.775391" xlink:href="#DejaVuSans-97"/>
    <use x="1056.054688" xlink:href="#DejaVuSans-108"/>
    <use x="1083.837891" xlink:href="#DejaVuSans-32"/>
    <use x="1115.625" xlink:href="#DejaVuSans-102"/>
    <use x="1150.830078" xlink:href="#DejaVuSans-108"/>
    <use x="1178.613281" xlink:href="#DejaVuSans-111"/>
    <use x="1239.794922" xlink:href="#DejaVuSans-119"/>
    <use x="1321.582031" xlink:href="#DejaVuSans-115"/>
    <use x="1373.681641" xlink:href="#DejaVuSans-32"/>
    <use x="1405.46875" xlink:href="#DejaVuSans-40"/>
    <use x="1444.482422" xlink:href="#DejaVuSans-101"/>
    <use x="1506.005859" xlink:href="#DejaVuSans-110"/>
    <use x="1569.384766" xlink:href="#DejaVuSans-116"/>
    <use x="1608.59375" xlink:href="#DejaVuSans-105"/>
    <use x="1636.376953" xlink:href="#DejaVuSans-114"/>
    <use x="1675.240234" xlink:href="#DejaVuSans-101"/>
    <use x="1736.763672" xlink:href="#DejaVuSans-32"/>
    <use x="1768.550781" xlink:href="#DejaVuSans-114"/>
    <use x="1807.414062" xlink:href="#DejaVuSans-101"/>
    <use x="1868.9375" xlink:href="#DejaVuSans-99"/>
    <use x="1923.917969" xlink:href="#DejaVuSans-111"/>
    <use x="1985.099609" xlink:href="#DejaVuSans-114"/>
    <use x="2024.462891" xlink:href="#DejaVuSans-100"/>
    <use x="2087.939453" xlink:href="#DejaVuSans-41"/>
   </g>
  </g>
 </g>
 <defs>
  <clipPath id="p9db0c901a7">
   <rect height="262.416749" width="285.3" x="54.55" y="41.083251"/>
  </clipPath>
  <clipPath id="pe060fc1fe0">
   <rect height="262.416749" width="285.3" x="423.9" y="41.083251"/>
  </clipPath>
 </defs>
</svg>
