<?xml version="1.0" encoding="utf-8" standalone="no"?>
<!DOCTYPE svg PUBLIC "-//W3C//DTD SVG 1.1//EN"
  "http://www.w3.org/Graphics/SVG/1.1/DTD/svg11.dtd">
<!-- Created with matplotlib (https://matplotlib.org/) -->
<svg height="288pt" version="1.1" viewBox="0 0 864 288" width="864pt" xmlns="http://www.w3.org/2000/svg" xmlns:xlink="http://www.w3.org/1999/xlink">
 <metadata>
  <rdf:RDF xmlns:cc="http://creativecommons.org/ns#" xmlns:dc="http://purl.org/dc/elements/1.1/" xmlns:rdf="http://www.w3.org/1999/02/22-rdf-syntax-ns#">
   <cc:Work>
    <dc:type rdf:resource="http://purl.org/dc/dcmitype/StillImage"/>
    <dc:date>2023-06-12T16:34:44.502466</dc:date>
    <dc:format>image/svg+xml</dc:format>
    <dc:creator>
     <cc:Agent>
      <dc:title>Matplotlib v3.3.4, https://matplotlib.org/</dc:title>
     </cc:Agent>
    </dc:creator>
   </cc:Work>
  </rdf:RDF>
 </metadata>
 <defs>
  <style type="text/css">*{stroke-linecap:butt;stroke-linejoin:round;}</style>
 </defs>
 <g id="figure_1">
  <g id="patch_1">
   <path d="M 0 288 
L 864 288 
L 864 0 
L 0 0 
z
" style="fill:none;"/>
  </g>
  <g id="axes_1">
   <g id="patch_2">
    <path d="M 108 252 
L 412.363636 252 
L 412.363636 34.56 
L 108 34.56 
z
" style="fill:#ffffff;"/>
   </g>
   <g id="PathCollection_1">
    <defs>
     <path d="M 0 3.535534 
C 0.937635 3.535534 1.836992 3.163008 2.5 2.5 
C 3.163008 1.836992 3.535534 0.937635 3.535534 0 
C 3.535534 -0.937635 3.163008 -1.836992 2.5 -2.5 
C 1.836992 -3.163008 0.937635 -3.535534 0 -3.535534 
C -0.937635 -3.535534 -1.836992 -3.163008 -2.5 -2.5 
C -3.163008 -1.836992 -3.535534 -0.937635 -3.535534 0 
C -3.535534 0.937635 -3.163008 1.836992 -2.5 2.5 
C -1.836992 3.163008 -0.937635 3.535534 0 3.535534 
z
" id="m00d1d05e08" style="stroke:#ffa500;"/>
    </defs>
    <g clip-path="url(#p5d3df21420)">
     <use style="fill:#ffa500;stroke:#ffa500;" x="190.711382" xlink:href="#m00d1d05e08" y="174.718222"/>
     <use style="fill:#ffa500;stroke:#ffa500;" x="171.414039" xlink:href="#m00d1d05e08" y="85.032312"/>
     <use style="fill:#ffa500;stroke:#ffa500;" x="377.747171" xlink:href="#m00d1d05e08" y="132.786089"/>
     <use style="fill:#ffa500;stroke:#ffa500;" x="161.023162" xlink:href="#m00d1d05e08" y="85.642974"/>
     <use style="fill:#ffa500;stroke:#ffa500;" x="383.684815" xlink:href="#m00d1d05e08" y="96.268495"/>
     <use style="fill:#ffa500;stroke:#ffa500;" x="193.680204" xlink:href="#m00d1d05e08" y="71.923432"/>
     <use style="fill:#ffa500;stroke:#ffa500;" x="371.809527" xlink:href="#m00d1d05e08" y="100.359931"/>
     <use style="fill:#ffa500;stroke:#ffa500;" x="368.840705" xlink:href="#m00d1d05e08" y="127.086576"/>
     <use style="fill:#ffa500;stroke:#ffa500;" x="180.320505" xlink:href="#m00d1d05e08" y="146.220656"/>
     <use style="fill:#ffa500;stroke:#ffa500;" x="138.311673" xlink:href="#m00d1d05e08" y="141.335359"/>
     <use style="fill:#ffa500;stroke:#ffa500;" x="187.74256" xlink:href="#m00d1d05e08" y="226.828056"/>
     <use style="fill:#ffa500;stroke:#ffa500;" x="316.886319" xlink:href="#m00d1d05e08" y="225.403177"/>
     <use style="fill:#ffa500;stroke:#ffa500;" x="358.449828" xlink:href="#m00d1d05e08" y="121.916304"/>
     <use style="fill:#ffa500;stroke:#ffa500;" x="385.169226" xlink:href="#m00d1d05e08" y="149.273967"/>
     <use style="fill:#ffa500;stroke:#ffa500;" x="269.385167" xlink:href="#m00d1d05e08" y="79.658485"/>
     <use style="fill:#ffa500;stroke:#ffa500;" x="272.353989" xlink:href="#m00d1d05e08" y="152.123723"/>
     <use style="fill:#ffa500;stroke:#ffa500;" x="312.433086" xlink:href="#m00d1d05e08" y="228.863596"/>
     <use style="fill:#ffa500;stroke:#ffa500;" x="148.554109" xlink:href="#m00d1d05e08" y="197.923382"/>
     <use style="fill:#ffa500;stroke:#ffa500;" x="205.555492" xlink:href="#m00d1d05e08" y="159.655223"/>
     <use style="fill:#ffa500;stroke:#ffa500;" x="303.52662" xlink:href="#m00d1d05e08" y="124.440374"/>
     <use style="fill:#ffa500;stroke:#ffa500;" x="238.212535" xlink:href="#m00d1d05e08" y="219.907218"/>
     <use style="fill:#ffa500;stroke:#ffa500;" x="310.948675" xlink:href="#m00d1d05e08" y="235.580879"/>
     <use style="fill:#ffa500;stroke:#ffa500;" x="333.214841" xlink:href="#m00d1d05e08" y="138.282049"/>
     <use style="fill:#ffa500;stroke:#ffa500;" x="336.183663" xlink:href="#m00d1d05e08" y="102.725229"/>
     <use style="fill:#ffa500;stroke:#ffa500;" x="150.186961" xlink:href="#m00d1d05e08" y="181.639059"/>
     <use style="fill:#ffa500;stroke:#ffa500;" x="361.41865" xlink:href="#m00d1d05e08" y="88.574152"/>
     <use style="fill:#ffa500;stroke:#ffa500;" x="155.976164" xlink:href="#m00d1d05e08" y="169.222262"/>
     <use style="fill:#ffa500;stroke:#ffa500;" x="352.512184" xlink:href="#m00d1d05e08" y="70.905661"/>
     <use style="fill:#ffa500;stroke:#ffa500;" x="345.090129" xlink:href="#m00d1d05e08" y="189.984775"/>
     <use style="fill:#ffa500;stroke:#ffa500;" x="166.960806" xlink:href="#m00d1d05e08" y="97.734084"/>
     <use style="fill:#ffa500;stroke:#ffa500;" x="398.528926" xlink:href="#m00d1d05e08" y="155.584142"/>
     <use style="fill:#ffa500;stroke:#ffa500;" x="223.368425" xlink:href="#m00d1d05e08" y="231.306244"/>
     <use style="fill:#ffa500;stroke:#ffa500;" x="254.541056" xlink:href="#m00d1d05e08" y="213.189935"/>
     <use style="fill:#ffa500;stroke:#ffa500;" x="248.603412" xlink:href="#m00d1d05e08" y="224.588961"/>
     <use style="fill:#ffa500;stroke:#ffa500;" x="276.807222" xlink:href="#m00d1d05e08" y="170.647141"/>
     <use style="fill:#ffa500;stroke:#ffa500;" x="162.507573" xlink:href="#m00d1d05e08" y="74.569634"/>
     <use style="fill:#ffa500;stroke:#ffa500;" x="294.620154" xlink:href="#m00d1d05e08" y="54.010676"/>
     <use style="fill:#ffa500;stroke:#ffa500;" x="226.337247" xlink:href="#m00d1d05e08" y="108.196761"/>
     <use style="fill:#ffa500;stroke:#ffa500;" x="297.588976" xlink:href="#m00d1d05e08" y="187.542126"/>
     <use style="fill:#ffa500;stroke:#ffa500;" x="251.572234" xlink:href="#m00d1d05e08" y="177.771532"/>
     <use style="fill:#ffa500;stroke:#ffa500;" x="183.289327" xlink:href="#m00d1d05e08" y="61.135068"/>
     <use style="fill:#ffa500;stroke:#ffa500;" x="299.073387" xlink:href="#m00d1d05e08" y="104.986714"/>
     <use style="fill:#ffa500;stroke:#ffa500;" x="309.464264" xlink:href="#m00d1d05e08" y="83.118904"/>
     <use style="fill:#ffa500;stroke:#ffa500;" x="281.260455" xlink:href="#m00d1d05e08" y="184.895924"/>
     <use style="fill:#ffa500;stroke:#ffa500;" x="260.4787" xlink:href="#m00d1d05e08" y="65.613256"/>
     <use style="fill:#ffa500;stroke:#ffa500;" x="232.274891" xlink:href="#m00d1d05e08" y="111.046518"/>
     <use style="fill:#ffa500;stroke:#ffa500;" x="389.622459" xlink:href="#m00d1d05e08" y="58.488865"/>
     <use style="fill:#ffa500;stroke:#ffa500;" x="273.8384" xlink:href="#m00d1d05e08" y="194.055855"/>
     <use style="fill:#ffa500;stroke:#ffa500;" x="346.57454" xlink:href="#m00d1d05e08" y="90.894668"/>
     <use style="fill:#ffa500;stroke:#ffa500;" x="208.524315" xlink:href="#m00d1d05e08" y="204.640665"/>
     <use style="fill:#ffa500;stroke:#ffa500;" x="322.823963" xlink:href="#m00d1d05e08" y="203.012233"/>
     <use style="fill:#ffa500;stroke:#ffa500;" x="214.461959" xlink:href="#m00d1d05e08" y="153.345047"/>
     <use style="fill:#ffa500;stroke:#ffa500;" x="198.133437" xlink:href="#m00d1d05e08" y="216.853908"/>
     <use style="fill:#ffa500;stroke:#ffa500;" x="257.509878" xlink:href="#m00d1d05e08" y="56.046217"/>
     <use style="fill:#ffa500;stroke:#ffa500;" x="379.231582" xlink:href="#m00d1d05e08" y="212.172165"/>
     <use style="fill:#ffa500;stroke:#ffa500;" x="324.308374" xlink:href="#m00d1d05e08" y="167.390276"/>
     <use style="fill:#ffa500;stroke:#ffa500;" x="242.665768" xlink:href="#m00d1d05e08" y="56.656879"/>
     <use style="fill:#ffa500;stroke:#ffa500;" x="391.10687" xlink:href="#m00d1d05e08" y="44.443636"/>
     <use style="fill:#ffa500;stroke:#ffa500;" x="210.008726" xlink:href="#m00d1d05e08" y="188.356342"/>
     <use style="fill:#ffa500;stroke:#ffa500;" x="290.166921" xlink:href="#m00d1d05e08" y="67.852351"/>
     <use style="fill:#ffa500;stroke:#ffa500;" x="168.445217" xlink:href="#m00d1d05e08" y="117.417759"/>
     <use style="fill:#ffa500;stroke:#ffa500;" x="394.075693" xlink:href="#m00d1d05e08" y="165.965398"/>
     <use style="fill:#ffa500;stroke:#ffa500;" x="284.229277" xlink:href="#m00d1d05e08" y="210.747287"/>
     <use style="fill:#ffa500;stroke:#ffa500;" x="229.306069" xlink:href="#m00d1d05e08" y="46.072069"/>
     <use style="fill:#ffa500;stroke:#ffa500;" x="245.63459" xlink:href="#m00d1d05e08" y="221.332097"/>
     <use style="fill:#ffa500;stroke:#ffa500;" x="125.248856" xlink:href="#m00d1d05e08" y="148.052642"/>
     <use style="fill:#ffa500;stroke:#ffa500;" x="364.387472" xlink:href="#m00d1d05e08" y="207.490422"/>
     <use style="fill:#ffa500;stroke:#ffa500;" x="263.447522" xlink:href="#m00d1d05e08" y="112.776727"/>
     <use style="fill:#ffa500;stroke:#ffa500;" x="264.931933" xlink:href="#m00d1d05e08" y="122.24199"/>
     <use style="fill:#ffa500;stroke:#ffa500;" x="145.882169" xlink:href="#m00d1d05e08" y="114.9344"/>
     <use style="fill:#ffa500;stroke:#ffa500;" x="186.258149" xlink:href="#m00d1d05e08" y="192.427423"/>
     <use style="fill:#ffa500;stroke:#ffa500;" x="133.85844" xlink:href="#m00d1d05e08" y="157.823236"/>
     <use style="fill:#ffa500;stroke:#ffa500;" x="141.428936" xlink:href="#m00d1d05e08" y="160.876547"/>
     <use style="fill:#ffa500;stroke:#ffa500;" x="172.89845" xlink:href="#m00d1d05e08" y="143.370899"/>
     <use style="fill:#ffa500;stroke:#ffa500;" x="340.636896" xlink:href="#m00d1d05e08" y="174.311113"/>
     <use style="fill:#ffa500;stroke:#ffa500;" x="196.649026" xlink:href="#m00d1d05e08" y="48.514717"/>
     <use style="fill:#ffa500;stroke:#ffa500;" x="214.461959" xlink:href="#m00d1d05e08" y="69.277229"/>
     <use style="fill:#ffa500;stroke:#ffa500;" x="221.884014" xlink:href="#m00d1d05e08" y="119.270101"/>
     <use style="fill:#ffa500;stroke:#ffa500;" x="282.744866" xlink:href="#m00d1d05e08" y="94.945394"/>
     <use style="fill:#ffa500;stroke:#ffa500;" x="373.293938" xlink:href="#m00d1d05e08" y="183.674599"/>
     <use style="fill:#ffa500;stroke:#ffa500;" x="235.243713" xlink:href="#m00d1d05e08" y="130.343441"/>
     <use style="fill:#ffa500;stroke:#ffa500;" x="351.027773" xlink:href="#m00d1d05e08" y="162.912087"/>
     <use style="fill:#ffa500;stroke:#ffa500;" x="132.670911" xlink:href="#m00d1d05e08" y="62.356392"/>
     <use style="fill:#ffa500;stroke:#ffa500;" x="217.430781" xlink:href="#m00d1d05e08" y="103.109946"/>
     <use style="fill:#ffa500;stroke:#ffa500;" x="303.52662" xlink:href="#m00d1d05e08" y="91.851372"/>
     <use style="fill:#ffa500;stroke:#ffa500;" x="142.319583" xlink:href="#m00d1d05e08" y="216.4468"/>
     <use style="fill:#ffa500;stroke:#ffa500;" x="128.217678" xlink:href="#m00d1d05e08" y="196.702058"/>
     <use style="fill:#ffa500;stroke:#ffa500;" x="153.897989" xlink:href="#m00d1d05e08" y="51.568028"/>
     <use style="fill:#ffa500;stroke:#ffa500;" x="293.135743" xlink:href="#m00d1d05e08" y="109.438441"/>
     <use style="fill:#ffa500;stroke:#ffa500;" x="318.37073" xlink:href="#m00d1d05e08" y="205.658436"/>
     <use style="fill:#ffa500;stroke:#ffa500;" x="365.871883" xlink:href="#m00d1d05e08" y="129.529225"/>
     <use style="fill:#ffa500;stroke:#ffa500;" x="327.277196" xlink:href="#m00d1d05e08" y="49.125379"/>
     <use style="fill:#ffa500;stroke:#ffa500;" x="355.481006" xlink:href="#m00d1d05e08" y="77.826499"/>
     <use style="fill:#ffa500;stroke:#ffa500;" x="337.668074" xlink:href="#m00d1d05e08" y="134.82163"/>
     <use style="fill:#ffa500;stroke:#ffa500;" x="201.102259" xlink:href="#m00d1d05e08" y="200.569585"/>
     <use style="fill:#ffa500;stroke:#ffa500;" x="330.246019" xlink:href="#m00d1d05e08" y="142.149575"/>
     <use style="fill:#ffa500;stroke:#ffa500;" x="175.867272" xlink:href="#m00d1d05e08" y="135.635846"/>
     <use style="fill:#ffa500;stroke:#ffa500;" x="121.834711" xlink:href="#m00d1d05e08" y="233.138231"/>
     <use style="fill:#ffa500;stroke:#ffa500;" x="241.181357" xlink:href="#m00d1d05e08" y="77.012283"/>
     <use style="fill:#ffa500;stroke:#ffa500;" x="122.873798" xlink:href="#m00d1d05e08" y="178.789302"/>
    </g>
   </g>
   <g id="PathCollection_2">
    <defs>
     <path d="M 0 3.535534 
C 0.937635 3.535534 1.836992 3.163008 2.5 2.5 
C 3.163008 1.836992 3.535534 0.937635 3.535534 0 
C 3.535534 -0.937635 3.163008 -1.836992 2.5 -2.5 
C 1.836992 -3.163008 0.937635 -3.535534 0 -3.535534 
C -0.937635 -3.535534 -1.836992 -3.163008 -2.5 -2.5 
C -3.163008 -1.836992 -3.535534 -0.937635 -3.535534 0 
C -3.535534 0.937635 -3.163008 1.836992 -2.5 2.5 
C -1.836992 3.163008 -0.937635 3.535534 0 3.535534 
z
" id="m6d7cf56280" style="stroke:#808080;"/>
    </defs>
    <g clip-path="url(#p5d3df21420)">
     <use style="fill:#808080;stroke:#808080;" x="316.83576" xlink:href="#m6d7cf56280" y="231.359109"/>
     <use style="fill:#808080;stroke:#808080;" x="289.932394" xlink:href="#m6d7cf56280" y="208.153043"/>
     <use style="fill:#808080;stroke:#808080;" x="268.407092" xlink:href="#m6d7cf56280" y="205.841387"/>
     <use style="fill:#808080;stroke:#808080;" x="264.342264" xlink:href="#m6d7cf56280" y="155.447191"/>
     <use style="fill:#808080;stroke:#808080;" x="262.624301" xlink:href="#m6d7cf56280" y="180.426386"/>
     <use style="fill:#808080;stroke:#808080;" x="296.935348" xlink:href="#m6d7cf56280" y="220.278492"/>
     <use style="fill:#808080;stroke:#808080;" x="261.223434" xlink:href="#m6d7cf56280" y="218.881005"/>
     <use style="fill:#808080;stroke:#808080;" x="292.717685" xlink:href="#m6d7cf56280" y="227.412031"/>
     <use style="fill:#808080;stroke:#808080;" x="257.938093" xlink:href="#m6d7cf56280" y="199.432961"/>
     <use style="fill:#808080;stroke:#808080;" x="308.636883" xlink:href="#m6d7cf56280" y="239.93913"/>
     <use style="fill:#808080;stroke:#808080;" x="271.033202" xlink:href="#m6d7cf56280" y="197.489559"/>
     <use style="fill:#808080;stroke:#808080;" x="277.889723" xlink:href="#m6d7cf56280" y="205.126373"/>
     <use style="fill:#808080;stroke:#808080;" x="262.954731" xlink:href="#m6d7cf56280" y="187.549324"/>
     <use style="fill:#808080;stroke:#808080;" x="274.319851" xlink:href="#m6d7cf56280" y="207.294089"/>
     <use style="fill:#808080;stroke:#808080;" x="294.542182" xlink:href="#m6d7cf56280" y="239.291771"/>
     <use style="fill:#808080;stroke:#808080;" x="292.974594" xlink:href="#m6d7cf56280" y="235.554976"/>
     <use style="fill:#808080;stroke:#808080;" x="277.402022" xlink:href="#m6d7cf56280" y="237.659299"/>
     <use style="fill:#808080;stroke:#808080;" x="241.143619" xlink:href="#m6d7cf56280" y="183.123484"/>
     <use style="fill:#808080;stroke:#808080;" x="302.14881" xlink:href="#m6d7cf56280" y="241.797539"/>
     <use style="fill:#808080;stroke:#808080;" x="275.48889" xlink:href="#m6d7cf56280" y="210.697943"/>
     <use style="fill:#808080;stroke:#808080;" x="254.491447" xlink:href="#m6d7cf56280" y="191.932103"/>
     <use style="fill:#808080;stroke:#808080;" x="251.397154" xlink:href="#m6d7cf56280" y="164.150706"/>
     <use style="fill:#808080;stroke:#808080;" x="278.625228" xlink:href="#m6d7cf56280" y="196.641577"/>
     <use style="fill:#808080;stroke:#808080;" x="277.269338" xlink:href="#m6d7cf56280" y="234.984947"/>
     <use style="fill:#808080;stroke:#808080;" x="251.947877" xlink:href="#m6d7cf56280" y="212.489374"/>
     <use style="fill:#808080;stroke:#808080;" x="264.574651" xlink:href="#m6d7cf56280" y="181.776812"/>
     <use style="fill:#808080;stroke:#808080;" x="268.954713" xlink:href="#m6d7cf56280" y="211.769425"/>
     <use style="fill:#808080;stroke:#808080;" x="298.650676" xlink:href="#m6d7cf56280" y="241.76984"/>
     <use style="fill:#808080;stroke:#808080;" x="235.381121" xlink:href="#m6d7cf56280" y="147.843327"/>
     <use style="fill:#808080;stroke:#808080;" x="265.747228" xlink:href="#m6d7cf56280" y="185.971532"/>
     <use style="fill:#808080;stroke:#808080;" x="273.059826" xlink:href="#m6d7cf56280" y="221.476688"/>
     <use style="fill:#808080;stroke:#808080;" x="310.461399" xlink:href="#m6d7cf56280" y="241.909232"/>
     <use style="fill:#808080;stroke:#808080;" x="301.438111" xlink:href="#m6d7cf56280" y="239.568597"/>
     <use style="fill:#808080;stroke:#808080;" x="298.144779" xlink:href="#m6d7cf56280" y="240.686789"/>
     <use style="fill:#808080;stroke:#808080;" x="270.774624" xlink:href="#m6d7cf56280" y="211.385423"/>
     <use style="fill:#808080;stroke:#808080;" x="299.651813" xlink:href="#m6d7cf56280" y="236.494756"/>
     <use style="fill:#808080;stroke:#808080;" x="295.521014" xlink:href="#m6d7cf56280" y="235.24385"/>
     <use style="fill:#808080;stroke:#808080;" x="260.521402" xlink:href="#m6d7cf56280" y="192.809591"/>
     <use style="fill:#808080;stroke:#808080;" x="276.430238" xlink:href="#m6d7cf56280" y="203.21757"/>
     <use style="fill:#808080;stroke:#808080;" x="275.940079" xlink:href="#m6d7cf56280" y="208.458478"/>
     <use style="fill:#808080;stroke:#808080;" x="282.073652" xlink:href="#m6d7cf56280" y="225.15674"/>
     <use style="fill:#808080;stroke:#808080;" x="297.356781" xlink:href="#m6d7cf56280" y="242.108089"/>
     <use style="fill:#808080;stroke:#808080;" x="285.804829" xlink:href="#m6d7cf56280" y="213.709466"/>
     <use style="fill:#808080;stroke:#808080;" x="280.911681" xlink:href="#m6d7cf56280" y="209.296179"/>
     <use style="fill:#808080;stroke:#808080;" x="260.767905" xlink:href="#m6d7cf56280" y="177.778091"/>
     <use style="fill:#808080;stroke:#808080;" x="280.034294" xlink:href="#m6d7cf56280" y="221.516291"/>
     <use style="fill:#808080;stroke:#808080;" x="278.574549" xlink:href="#m6d7cf56280" y="206.891297"/>
     <use style="fill:#808080;stroke:#808080;" x="278.646802" xlink:href="#m6d7cf56280" y="234.548163"/>
     <use style="fill:#808080;stroke:#808080;" x="277.11772" xlink:href="#m6d7cf56280" y="223.145331"/>
     <use style="fill:#808080;stroke:#808080;" x="274.47646" xlink:href="#m6d7cf56280" y="194.668754"/>
     <use style="fill:#808080;stroke:#808080;" x="307.50303" xlink:href="#m6d7cf56280" y="241.202378"/>
     <use style="fill:#808080;stroke:#808080;" x="278.746405" xlink:href="#m6d7cf56280" y="218.384675"/>
     <use style="fill:#808080;stroke:#808080;" x="285.522099" xlink:href="#m6d7cf56280" y="212.595655"/>
     <use style="fill:#808080;stroke:#808080;" x="254.561031" xlink:href="#m6d7cf56280" y="180.694822"/>
     <use style="fill:#808080;stroke:#808080;" x="259.469538" xlink:href="#m6d7cf56280" y="182.483519"/>
     <use style="fill:#808080;stroke:#808080;" x="283.857217" xlink:href="#m6d7cf56280" y="196.073534"/>
     <use style="fill:#808080;stroke:#808080;" x="271.584208" xlink:href="#m6d7cf56280" y="210.192398"/>
     <use style="fill:#808080;stroke:#808080;" x="279.612567" xlink:href="#m6d7cf56280" y="229.523305"/>
     <use style="fill:#808080;stroke:#808080;" x="320.214621" xlink:href="#m6d7cf56280" y="241.649882"/>
     <use style="fill:#808080;stroke:#808080;" x="312.221707" xlink:href="#m6d7cf56280" y="241.293833"/>
     <use style="fill:#808080;stroke:#808080;" x="249.248369" xlink:href="#m6d7cf56280" y="175.097158"/>
     <use style="fill:#808080;stroke:#808080;" x="325.726921" xlink:href="#m6d7cf56280" y="236.600096"/>
     <use style="fill:#808080;stroke:#808080;" x="288.409116" xlink:href="#m6d7cf56280" y="241.575881"/>
     <use style="fill:#808080;stroke:#808080;" x="256.667997" xlink:href="#m6d7cf56280" y="188.159932"/>
     <use style="fill:#808080;stroke:#808080;" x="267.567783" xlink:href="#m6d7cf56280" y="224.058304"/>
     <use style="fill:#808080;stroke:#808080;" x="268.236289" xlink:href="#m6d7cf56280" y="186.410516"/>
     <use style="fill:#808080;stroke:#808080;" x="303.263231" xlink:href="#m6d7cf56280" y="223.896254"/>
     <use style="fill:#808080;stroke:#808080;" x="256.499241" xlink:href="#m6d7cf56280" y="172.644438"/>
     <use style="fill:#808080;stroke:#808080;" x="323.858057" xlink:href="#m6d7cf56280" y="239.908948"/>
     <use style="fill:#808080;stroke:#808080;" x="259.059919" xlink:href="#m6d7cf56280" y="194.391029"/>
     <use style="fill:#808080;stroke:#808080;" x="267.170989" xlink:href="#m6d7cf56280" y="198.916608"/>
     <use style="fill:#808080;stroke:#808080;" x="262.778131" xlink:href="#m6d7cf56280" y="182.679628"/>
     <use style="fill:#808080;stroke:#808080;" x="247.445901" xlink:href="#m6d7cf56280" y="195.265091"/>
     <use style="fill:#808080;stroke:#808080;" x="272.881233" xlink:href="#m6d7cf56280" y="220.904224"/>
     <use style="fill:#808080;stroke:#808080;" x="247.00731" xlink:href="#m6d7cf56280" y="187.296216"/>
     <use style="fill:#808080;stroke:#808080;" x="273.999588" xlink:href="#m6d7cf56280" y="208.116409"/>
     <use style="fill:#808080;stroke:#808080;" x="325.165993" xlink:href="#m6d7cf56280" y="232.087753"/>
     <use style="fill:#808080;stroke:#808080;" x="267.952752" xlink:href="#m6d7cf56280" y="214.361965"/>
     <use style="fill:#808080;stroke:#808080;" x="301.102657" xlink:href="#m6d7cf56280" y="222.474707"/>
     <use style="fill:#808080;stroke:#808080;" x="272.455945" xlink:href="#m6d7cf56280" y="185.211611"/>
     <use style="fill:#808080;stroke:#808080;" x="289.034372" xlink:href="#m6d7cf56280" y="241.998013"/>
     <use style="fill:#808080;stroke:#808080;" x="277.765457" xlink:href="#m6d7cf56280" y="213.449701"/>
     <use style="fill:#808080;stroke:#808080;" x="280.249331" xlink:href="#m6d7cf56280" y="239.746718"/>
     <use style="fill:#808080;stroke:#808080;" x="316.217474" xlink:href="#m6d7cf56280" y="241.987529"/>
     <use style="fill:#808080;stroke:#808080;" x="263.427189" xlink:href="#m6d7cf56280" y="202.754573"/>
     <use style="fill:#808080;stroke:#808080;" x="279.481936" xlink:href="#m6d7cf56280" y="242.116364"/>
     <use style="fill:#808080;stroke:#808080;" x="270.304086" xlink:href="#m6d7cf56280" y="214.115727"/>
     <use style="fill:#808080;stroke:#808080;" x="275.188553" xlink:href="#m6d7cf56280" y="179.922228"/>
     <use style="fill:#808080;stroke:#808080;" x="293.718092" xlink:href="#m6d7cf56280" y="224.259581"/>
     <use style="fill:#808080;stroke:#808080;" x="283.947943" xlink:href="#m6d7cf56280" y="179.20684"/>
     <use style="fill:#808080;stroke:#808080;" x="256.61433" xlink:href="#m6d7cf56280" y="209.986503"/>
     <use style="fill:#808080;stroke:#808080;" x="236.528198" xlink:href="#m6d7cf56280" y="171.93177"/>
     <use style="fill:#808080;stroke:#808080;" x="276.121031" xlink:href="#m6d7cf56280" y="201.864197"/>
     <use style="fill:#808080;stroke:#808080;" x="288.375807" xlink:href="#m6d7cf56280" y="224.367024"/>
     <use style="fill:#808080;stroke:#808080;" x="334.826595" xlink:href="#m6d7cf56280" y="242.103776"/>
     <use style="fill:#808080;stroke:#808080;" x="251.912362" xlink:href="#m6d7cf56280" y="202.424174"/>
     <use style="fill:#808080;stroke:#808080;" x="265.938176" xlink:href="#m6d7cf56280" y="192.268986"/>
     <use style="fill:#808080;stroke:#808080;" x="307.168436" xlink:href="#m6d7cf56280" y="242.098028"/>
     <use style="fill:#808080;stroke:#808080;" x="297.012657" xlink:href="#m6d7cf56280" y="212.35603"/>
     <use style="fill:#808080;stroke:#808080;" x="292.461614" xlink:href="#m6d7cf56280" y="221.1599"/>
    </g>
   </g>
   <g id="PathCollection_3">
    <defs>
     <path d="M 0 3.535534 
C 0.937635 3.535534 1.836992 3.163008 2.5 2.5 
C 3.163008 1.836992 3.535534 0.937635 3.535534 0 
C 3.535534 -0.937635 3.163008 -1.836992 2.5 -2.5 
C 1.836992 -3.163008 0.937635 -3.535534 0 -3.535534 
C -0.937635 -3.535534 -1.836992 -3.163008 -2.5 -2.5 
C -3.163008 -1.836992 -3.535534 -0.937635 -3.535534 0 
C -3.535534 0.937635 -3.163008 1.836992 -2.5 2.5 
C -1.836992 3.163008 -0.937635 3.535534 0 3.535534 
z
" id="m10edceef6e" style="stroke:#000000;"/>
    </defs>
    <g clip-path="url(#p5d3df21420)">
     <use style="stroke:#000000;" x="156.569929" xlink:href="#m10edceef6e" y="103.881416"/>
    </g>
   </g>
   <g id="matplotlib.axis_1">
    <g id="xtick_1">
     <g id="line2d_1">
      <defs>
       <path d="M 0 0 
L 0 3.5 
" id="m605d48f0ff" style="stroke:#000000;stroke-width:0.8;"/>
      </defs>
      <g>
       <use style="stroke:#000000;stroke-width:0.8;" x="119.459653" xlink:href="#m605d48f0ff" y="252"/>
      </g>
     </g>
     <g id="text_1">
      <!-- 0.75 -->
      <g transform="translate(108.326841 266.598437)scale(0.1 -0.1)">
       <defs>
        <path d="M 31.78125 66.40625 
Q 24.171875 66.40625 20.328125 58.90625 
Q 16.5 51.421875 16.5 36.375 
Q 16.5 21.390625 20.328125 13.890625 
Q 24.171875 6.390625 31.78125 6.390625 
Q 39.453125 6.390625 43.28125 13.890625 
Q 47.125 21.390625 47.125 36.375 
Q 47.125 51.421875 43.28125 58.90625 
Q 39.453125 66.40625 31.78125 66.40625 
z
M 31.78125 74.21875 
Q 44.046875 74.21875 50.515625 64.515625 
Q 56.984375 54.828125 56.984375 36.375 
Q 56.984375 17.96875 50.515625 8.265625 
Q 44.046875 -1.421875 31.78125 -1.421875 
Q 19.53125 -1.421875 13.0625 8.265625 
Q 6.59375 17.96875 6.59375 36.375 
Q 6.59375 54.828125 13.0625 64.515625 
Q 19.53125 74.21875 31.78125 74.21875 
z
" id="DejaVuSans-48"/>
        <path d="M 10.6875 12.40625 
L 21 12.40625 
L 21 0 
L 10.6875 0 
z
" id="DejaVuSans-46"/>
        <path d="M 8.203125 72.90625 
L 55.078125 72.90625 
L 55.078125 68.703125 
L 28.609375 0 
L 18.3125 0 
L 43.21875 64.59375 
L 8.203125 64.59375 
z
" id="DejaVuSans-55"/>
        <path d="M 10.796875 72.90625 
L 49.515625 72.90625 
L 49.515625 64.59375 
L 19.828125 64.59375 
L 19.828125 46.734375 
Q 21.96875 47.46875 24.109375 47.828125 
Q 26.265625 48.1875 28.421875 48.1875 
Q 40.625 48.1875 47.75 41.5 
Q 54.890625 34.8125 54.890625 23.390625 
Q 54.890625 11.625 47.5625 5.09375 
Q 40.234375 -1.421875 26.90625 -1.421875 
Q 22.3125 -1.421875 17.546875 -0.640625 
Q 12.796875 0.140625 7.71875 1.703125 
L 7.71875 11.625 
Q 12.109375 9.234375 16.796875 8.0625 
Q 21.484375 6.890625 26.703125 6.890625 
Q 35.15625 6.890625 40.078125 11.328125 
Q 45.015625 15.765625 45.015625 23.390625 
Q 45.015625 31 40.078125 35.4375 
Q 35.15625 39.890625 26.703125 39.890625 
Q 22.75 39.890625 18.8125 39.015625 
Q 14.890625 38.140625 10.796875 36.28125 
z
" id="DejaVuSans-53"/>
       </defs>
       <use xlink:href="#DejaVuSans-48"/>
       <use x="63.623047" xlink:href="#DejaVuSans-46"/>
       <use x="95.410156" xlink:href="#DejaVuSans-55"/>
       <use x="159.033203" xlink:href="#DejaVuSans-53"/>
      </g>
     </g>
    </g>
    <g id="xtick_2">
     <g id="line2d_2">
      <g>
       <use style="stroke:#000000;stroke-width:0.8;" x="156.569929" xlink:href="#m605d48f0ff" y="252"/>
      </g>
     </g>
     <g id="text_2">
      <!-- 1.00 -->
      <g transform="translate(145.437116 266.598437)scale(0.1 -0.1)">
       <defs>
        <path d="M 12.40625 8.296875 
L 28.515625 8.296875 
L 28.515625 63.921875 
L 10.984375 60.40625 
L 10.984375 69.390625 
L 28.421875 72.90625 
L 38.28125 72.90625 
L 38.28125 8.296875 
L 54.390625 8.296875 
L 54.390625 0 
L 12.40625 0 
z
" id="DejaVuSans-49"/>
       </defs>
       <use xlink:href="#DejaVuSans-49"/>
       <use x="63.623047" xlink:href="#DejaVuSans-46"/>
       <use x="95.410156" xlink:href="#DejaVuSans-48"/>
       <use x="159.033203" xlink:href="#DejaVuSans-48"/>
      </g>
     </g>
    </g>
    <g id="xtick_3">
     <g id="line2d_3">
      <g>
       <use style="stroke:#000000;stroke-width:0.8;" x="193.680204" xlink:href="#m605d48f0ff" y="252"/>
      </g>
     </g>
     <g id="text_3">
      <!-- 1.25 -->
      <g transform="translate(182.547392 266.598437)scale(0.1 -0.1)">
       <defs>
        <path d="M 19.1875 8.296875 
L 53.609375 8.296875 
L 53.609375 0 
L 7.328125 0 
L 7.328125 8.296875 
Q 12.9375 14.109375 22.625 23.890625 
Q 32.328125 33.6875 34.8125 36.53125 
Q 39.546875 41.84375 41.421875 45.53125 
Q 43.3125 49.21875 43.3125 52.78125 
Q 43.3125 58.59375 39.234375 62.25 
Q 35.15625 65.921875 28.609375 65.921875 
Q 23.96875 65.921875 18.8125 64.3125 
Q 13.671875 62.703125 7.8125 59.421875 
L 7.8125 69.390625 
Q 13.765625 71.78125 18.9375 73 
Q 24.125 74.21875 28.421875 74.21875 
Q 39.75 74.21875 46.484375 68.546875 
Q 53.21875 62.890625 53.21875 53.421875 
Q 53.21875 48.921875 51.53125 44.890625 
Q 49.859375 40.875 45.40625 35.40625 
Q 44.1875 33.984375 37.640625 27.21875 
Q 31.109375 20.453125 19.1875 8.296875 
z
" id="DejaVuSans-50"/>
       </defs>
       <use xlink:href="#DejaVuSans-49"/>
       <use x="63.623047" xlink:href="#DejaVuSans-46"/>
       <use x="95.410156" xlink:href="#DejaVuSans-50"/>
       <use x="159.033203" xlink:href="#DejaVuSans-53"/>
      </g>
     </g>
    </g>
    <g id="xtick_4">
     <g id="line2d_4">
      <g>
       <use style="stroke:#000000;stroke-width:0.8;" x="230.79048" xlink:href="#m605d48f0ff" y="252"/>
      </g>
     </g>
     <g id="text_4">
      <!-- 1.50 -->
      <g transform="translate(219.657667 266.598437)scale(0.1 -0.1)">
       <use xlink:href="#DejaVuSans-49"/>
       <use x="63.623047" xlink:href="#DejaVuSans-46"/>
       <use x="95.410156" xlink:href="#DejaVuSans-53"/>
       <use x="159.033203" xlink:href="#DejaVuSans-48"/>
      </g>
     </g>
    </g>
    <g id="xtick_5">
     <g id="line2d_5">
      <g>
       <use style="stroke:#000000;stroke-width:0.8;" x="267.900756" xlink:href="#m605d48f0ff" y="252"/>
      </g>
     </g>
     <g id="text_5">
      <!-- 1.75 -->
      <g transform="translate(256.767943 266.598437)scale(0.1 -0.1)">
       <use xlink:href="#DejaVuSans-49"/>
       <use x="63.623047" xlink:href="#DejaVuSans-46"/>
       <use x="95.410156" xlink:href="#DejaVuSans-55"/>
       <use x="159.033203" xlink:href="#DejaVuSans-53"/>
      </g>
     </g>
    </g>
    <g id="xtick_6">
     <g id="line2d_6">
      <g>
       <use style="stroke:#000000;stroke-width:0.8;" x="305.011031" xlink:href="#m605d48f0ff" y="252"/>
      </g>
     </g>
     <g id="text_6">
      <!-- 2.00 -->
      <g transform="translate(293.878219 266.598437)scale(0.1 -0.1)">
       <use xlink:href="#DejaVuSans-50"/>
       <use x="63.623047" xlink:href="#DejaVuSans-46"/>
       <use x="95.410156" xlink:href="#DejaVuSans-48"/>
       <use x="159.033203" xlink:href="#DejaVuSans-48"/>
      </g>
     </g>
    </g>
    <g id="xtick_7">
     <g id="line2d_7">
      <g>
       <use style="stroke:#000000;stroke-width:0.8;" x="342.121307" xlink:href="#m605d48f0ff" y="252"/>
      </g>
     </g>
     <g id="text_7">
      <!-- 2.25 -->
      <g transform="translate(330.988494 266.598437)scale(0.1 -0.1)">
       <use xlink:href="#DejaVuSans-50"/>
       <use x="63.623047" xlink:href="#DejaVuSans-46"/>
       <use x="95.410156" xlink:href="#DejaVuSans-50"/>
       <use x="159.033203" xlink:href="#DejaVuSans-53"/>
      </g>
     </g>
    </g>
    <g id="xtick_8">
     <g id="line2d_8">
      <g>
       <use style="stroke:#000000;stroke-width:0.8;" x="379.231582" xlink:href="#m605d48f0ff" y="252"/>
      </g>
     </g>
     <g id="text_8">
      <!-- 2.50 -->
      <g transform="translate(368.09877 266.598437)scale(0.1 -0.1)">
       <use xlink:href="#DejaVuSans-50"/>
       <use x="63.623047" xlink:href="#DejaVuSans-46"/>
       <use x="95.410156" xlink:href="#DejaVuSans-53"/>
       <use x="159.033203" xlink:href="#DejaVuSans-48"/>
      </g>
     </g>
    </g>
    <g id="text_9">
     <!-- $\sigma_d$ multiplier -->
     <g transform="translate(229.181818 280.278125)scale(0.1 -0.1)">
      <defs>
       <path d="M 34.671875 47.5625 
Q 27.25 47.5625 22.21875 42.1875 
Q 16.890625 36.578125 15.140625 27.296875 
Q 13.1875 17.484375 16.3125 11.8125 
Q 19.390625 6.203125 26.65625 6.203125 
Q 33.84375 6.203125 39.109375 11.859375 
Q 44.4375 17.53125 46.34375 27.296875 
Q 48.046875 36.234375 45.015625 42.1875 
Q 42.1875 47.5625 34.671875 47.5625 
z
M 36.078125 54.734375 
L 65.921875 54.6875 
L 64.15625 45.703125 
L 54.109375 45.703125 
Q 57.90625 38.09375 55.859375 27.296875 
Q 53.21875 13.875 45.0625 6.25 
Q 36.859375 -1.421875 25.140625 -1.421875 
Q 13.375 -1.421875 8.203125 6.25 
Q 3.03125 13.875 5.671875 27.296875 
Q 8.25 40.765625 16.40625 48.390625 
Q 23.1875 54.734375 36.078125 54.734375 
z
" id="DejaVuSans-Oblique-963"/>
       <path d="M 41.796875 8.203125 
Q 38.1875 3.46875 33.25 1.015625 
Q 28.328125 -1.421875 22.3125 -1.421875 
Q 14.109375 -1.421875 9.34375 4.171875 
Q 4.59375 9.765625 4.59375 19.484375 
Q 4.59375 27.59375 7.46875 34.9375 
Q 10.359375 42.28125 15.828125 48.09375 
Q 19.4375 51.953125 23.96875 53.96875 
Q 28.515625 56 33.5 56 
Q 38.765625 56 42.796875 53.453125 
Q 46.828125 50.921875 49.03125 46.1875 
L 54.890625 75.984375 
L 63.921875 75.984375 
L 49.125 0 
L 40.09375 0 
z
M 13.921875 21.09375 
Q 13.921875 14.015625 17.109375 10.0625 
Q 20.3125 6.109375 25.984375 6.109375 
Q 30.171875 6.109375 33.765625 8.125 
Q 37.359375 10.15625 40.09375 14.109375 
Q 42.96875 18.21875 44.625 23.578125 
Q 46.296875 28.953125 46.296875 34.1875 
Q 46.296875 40.96875 43.09375 44.765625 
Q 39.890625 48.578125 34.28125 48.578125 
Q 30.03125 48.578125 26.359375 46.578125 
Q 22.703125 44.578125 20.125 40.828125 
Q 17.28125 36.765625 15.59375 31.390625 
Q 13.921875 26.03125 13.921875 21.09375 
z
" id="DejaVuSans-Oblique-100"/>
       <path id="DejaVuSans-32"/>
       <path d="M 52 44.1875 
Q 55.375 50.25 60.0625 53.125 
Q 64.75 56 71.09375 56 
Q 79.640625 56 84.28125 50.015625 
Q 88.921875 44.046875 88.921875 33.015625 
L 88.921875 0 
L 79.890625 0 
L 79.890625 32.71875 
Q 79.890625 40.578125 77.09375 44.375 
Q 74.3125 48.1875 68.609375 48.1875 
Q 61.625 48.1875 57.5625 43.546875 
Q 53.515625 38.921875 53.515625 30.90625 
L 53.515625 0 
L 44.484375 0 
L 44.484375 32.71875 
Q 44.484375 40.625 41.703125 44.40625 
Q 38.921875 48.1875 33.109375 48.1875 
Q 26.21875 48.1875 22.15625 43.53125 
Q 18.109375 38.875 18.109375 30.90625 
L 18.109375 0 
L 9.078125 0 
L 9.078125 54.6875 
L 18.109375 54.6875 
L 18.109375 46.1875 
Q 21.1875 51.21875 25.484375 53.609375 
Q 29.78125 56 35.6875 56 
Q 41.65625 56 45.828125 52.96875 
Q 50 49.953125 52 44.1875 
z
" id="DejaVuSans-109"/>
       <path d="M 8.5 21.578125 
L 8.5 54.6875 
L 17.484375 54.6875 
L 17.484375 21.921875 
Q 17.484375 14.15625 20.5 10.265625 
Q 23.53125 6.390625 29.59375 6.390625 
Q 36.859375 6.390625 41.078125 11.03125 
Q 45.3125 15.671875 45.3125 23.6875 
L 45.3125 54.6875 
L 54.296875 54.6875 
L 54.296875 0 
L 45.3125 0 
L 45.3125 8.40625 
Q 42.046875 3.421875 37.71875 1 
Q 33.40625 -1.421875 27.6875 -1.421875 
Q 18.265625 -1.421875 13.375 4.4375 
Q 8.5 10.296875 8.5 21.578125 
z
M 31.109375 56 
z
" id="DejaVuSans-117"/>
       <path d="M 9.421875 75.984375 
L 18.40625 75.984375 
L 18.40625 0 
L 9.421875 0 
z
" id="DejaVuSans-108"/>
       <path d="M 18.3125 70.21875 
L 18.3125 54.6875 
L 36.8125 54.6875 
L 36.8125 47.703125 
L 18.3125 47.703125 
L 18.3125 18.015625 
Q 18.3125 11.328125 20.140625 9.421875 
Q 21.96875 7.515625 27.59375 7.515625 
L 36.8125 7.515625 
L 36.8125 0 
L 27.59375 0 
Q 17.1875 0 13.234375 3.875 
Q 9.28125 7.765625 9.28125 18.015625 
L 9.28125 47.703125 
L 2.6875 47.703125 
L 2.6875 54.6875 
L 9.28125 54.6875 
L 9.28125 70.21875 
z
" id="DejaVuSans-116"/>
       <path d="M 9.421875 54.6875 
L 18.40625 54.6875 
L 18.40625 0 
L 9.421875 0 
z
M 9.421875 75.984375 
L 18.40625 75.984375 
L 18.40625 64.59375 
L 9.421875 64.59375 
z
" id="DejaVuSans-105"/>
       <path d="M 18.109375 8.203125 
L 18.109375 -20.796875 
L 9.078125 -20.796875 
L 9.078125 54.6875 
L 18.109375 54.6875 
L 18.109375 46.390625 
Q 20.953125 51.265625 25.265625 53.625 
Q 29.59375 56 35.59375 56 
Q 45.5625 56 51.78125 48.09375 
Q 58.015625 40.1875 58.015625 27.296875 
Q 58.015625 14.40625 51.78125 6.484375 
Q 45.5625 -1.421875 35.59375 -1.421875 
Q 29.59375 -1.421875 25.265625 0.953125 
Q 20.953125 3.328125 18.109375 8.203125 
z
M 48.6875 27.296875 
Q 48.6875 37.203125 44.609375 42.84375 
Q 40.53125 48.484375 33.40625 48.484375 
Q 26.265625 48.484375 22.1875 42.84375 
Q 18.109375 37.203125 18.109375 27.296875 
Q 18.109375 17.390625 22.1875 11.75 
Q 26.265625 6.109375 33.40625 6.109375 
Q 40.53125 6.109375 44.609375 11.75 
Q 48.6875 17.390625 48.6875 27.296875 
z
" id="DejaVuSans-112"/>
       <path d="M 56.203125 29.59375 
L 56.203125 25.203125 
L 14.890625 25.203125 
Q 15.484375 15.921875 20.484375 11.0625 
Q 25.484375 6.203125 34.421875 6.203125 
Q 39.59375 6.203125 44.453125 7.46875 
Q 49.3125 8.734375 54.109375 11.28125 
L 54.109375 2.78125 
Q 49.265625 0.734375 44.1875 -0.34375 
Q 39.109375 -1.421875 33.890625 -1.421875 
Q 20.796875 -1.421875 13.15625 6.1875 
Q 5.515625 13.8125 5.515625 26.8125 
Q 5.515625 40.234375 12.765625 48.109375 
Q 20.015625 56 32.328125 56 
Q 43.359375 56 49.78125 48.890625 
Q 56.203125 41.796875 56.203125 29.59375 
z
M 47.21875 32.234375 
Q 47.125 39.59375 43.09375 43.984375 
Q 39.0625 48.390625 32.421875 48.390625 
Q 24.90625 48.390625 20.390625 44.140625 
Q 15.875 39.890625 15.1875 32.171875 
z
" id="DejaVuSans-101"/>
       <path d="M 41.109375 46.296875 
Q 39.59375 47.171875 37.8125 47.578125 
Q 36.03125 48 33.890625 48 
Q 26.265625 48 22.1875 43.046875 
Q 18.109375 38.09375 18.109375 28.8125 
L 18.109375 0 
L 9.078125 0 
L 9.078125 54.6875 
L 18.109375 54.6875 
L 18.109375 46.1875 
Q 20.953125 51.171875 25.484375 53.578125 
Q 30.03125 56 36.53125 56 
Q 37.453125 56 38.578125 55.875 
Q 39.703125 55.765625 41.0625 55.515625 
z
" id="DejaVuSans-114"/>
      </defs>
      <use transform="translate(0 0.015625)" xlink:href="#DejaVuSans-Oblique-963"/>
      <use transform="translate(63.378906 -16.390625)scale(0.7)" xlink:href="#DejaVuSans-Oblique-100"/>
      <use transform="translate(110.546875 0.015625)" xlink:href="#DejaVuSans-32"/>
      <use transform="translate(142.333984 0.015625)" xlink:href="#DejaVuSans-109"/>
      <use transform="translate(239.746094 0.015625)" xlink:href="#DejaVuSans-117"/>
      <use transform="translate(303.125 0.015625)" xlink:href="#DejaVuSans-108"/>
      <use transform="translate(330.908203 0.015625)" xlink:href="#DejaVuSans-116"/>
      <use transform="translate(370.117188 0.015625)" xlink:href="#DejaVuSans-105"/>
      <use transform="translate(397.900391 0.015625)" xlink:href="#DejaVuSans-112"/>
      <use transform="translate(461.376953 0.015625)" xlink:href="#DejaVuSans-108"/>
      <use transform="translate(489.160156 0.015625)" xlink:href="#DejaVuSans-105"/>
      <use transform="translate(516.943359 0.015625)" xlink:href="#DejaVuSans-101"/>
      <use transform="translate(578.466797 0.015625)" xlink:href="#DejaVuSans-114"/>
     </g>
    </g>
   </g>
   <g id="matplotlib.axis_2">
    <g id="ytick_1">
     <g id="line2d_9">
      <defs>
       <path d="M 0 0 
L -3.5 0 
" id="mc195812028" style="stroke:#000000;stroke-width:0.8;"/>
      </defs>
      <g>
       <use style="stroke:#000000;stroke-width:0.8;" x="108" xlink:href="#mc195812028" y="226.013839"/>
      </g>
     </g>
     <g id="text_10">
      <!-- −0.6 -->
      <g transform="translate(76.717187 229.813058)scale(0.1 -0.1)">
       <defs>
        <path d="M 10.59375 35.5 
L 73.1875 35.5 
L 73.1875 27.203125 
L 10.59375 27.203125 
z
" id="DejaVuSans-8722"/>
        <path d="M 33.015625 40.375 
Q 26.375 40.375 22.484375 35.828125 
Q 18.609375 31.296875 18.609375 23.390625 
Q 18.609375 15.53125 22.484375 10.953125 
Q 26.375 6.390625 33.015625 6.390625 
Q 39.65625 6.390625 43.53125 10.953125 
Q 47.40625 15.53125 47.40625 23.390625 
Q 47.40625 31.296875 43.53125 35.828125 
Q 39.65625 40.375 33.015625 40.375 
z
M 52.59375 71.296875 
L 52.59375 62.3125 
Q 48.875 64.0625 45.09375 64.984375 
Q 41.3125 65.921875 37.59375 65.921875 
Q 27.828125 65.921875 22.671875 59.328125 
Q 17.53125 52.734375 16.796875 39.40625 
Q 19.671875 43.65625 24.015625 45.921875 
Q 28.375 48.1875 33.59375 48.1875 
Q 44.578125 48.1875 50.953125 41.515625 
Q 57.328125 34.859375 57.328125 23.390625 
Q 57.328125 12.15625 50.6875 5.359375 
Q 44.046875 -1.421875 33.015625 -1.421875 
Q 20.359375 -1.421875 13.671875 8.265625 
Q 6.984375 17.96875 6.984375 36.375 
Q 6.984375 53.65625 15.1875 63.9375 
Q 23.390625 74.21875 37.203125 74.21875 
Q 40.921875 74.21875 44.703125 73.484375 
Q 48.484375 72.75 52.59375 71.296875 
z
" id="DejaVuSans-54"/>
       </defs>
       <use xlink:href="#DejaVuSans-8722"/>
       <use x="83.789062" xlink:href="#DejaVuSans-48"/>
       <use x="147.412109" xlink:href="#DejaVuSans-46"/>
       <use x="179.199219" xlink:href="#DejaVuSans-54"/>
      </g>
     </g>
    </g>
    <g id="ytick_2">
     <g id="line2d_10">
      <g>
       <use style="stroke:#000000;stroke-width:0.8;" x="108" xlink:href="#mc195812028" y="185.303032"/>
      </g>
     </g>
     <g id="text_11">
      <!-- −0.4 -->
      <g transform="translate(76.717187 189.10225)scale(0.1 -0.1)">
       <defs>
        <path d="M 37.796875 64.3125 
L 12.890625 25.390625 
L 37.796875 25.390625 
z
M 35.203125 72.90625 
L 47.609375 72.90625 
L 47.609375 25.390625 
L 58.015625 25.390625 
L 58.015625 17.1875 
L 47.609375 17.1875 
L 47.609375 0 
L 37.796875 0 
L 37.796875 17.1875 
L 4.890625 17.1875 
L 4.890625 26.703125 
z
" id="DejaVuSans-52"/>
       </defs>
       <use xlink:href="#DejaVuSans-8722"/>
       <use x="83.789062" xlink:href="#DejaVuSans-48"/>
       <use x="147.412109" xlink:href="#DejaVuSans-46"/>
       <use x="179.199219" xlink:href="#DejaVuSans-52"/>
      </g>
     </g>
    </g>
    <g id="ytick_3">
     <g id="line2d_11">
      <g>
       <use style="stroke:#000000;stroke-width:0.8;" x="108" xlink:href="#mc195812028" y="144.592224"/>
      </g>
     </g>
     <g id="text_12">
      <!-- −0.2 -->
      <g transform="translate(76.717187 148.391442)scale(0.1 -0.1)">
       <use xlink:href="#DejaVuSans-8722"/>
       <use x="83.789062" xlink:href="#DejaVuSans-48"/>
       <use x="147.412109" xlink:href="#DejaVuSans-46"/>
       <use x="179.199219" xlink:href="#DejaVuSans-50"/>
      </g>
     </g>
    </g>
    <g id="ytick_4">
     <g id="line2d_12">
      <g>
       <use style="stroke:#000000;stroke-width:0.8;" x="108" xlink:href="#mc195812028" y="103.881416"/>
      </g>
     </g>
     <g id="text_13">
      <!-- 0.0 -->
      <g transform="translate(85.096875 107.680635)scale(0.1 -0.1)">
       <use xlink:href="#DejaVuSans-48"/>
       <use x="63.623047" xlink:href="#DejaVuSans-46"/>
       <use x="95.410156" xlink:href="#DejaVuSans-48"/>
      </g>
     </g>
    </g>
    <g id="ytick_5">
     <g id="line2d_13">
      <g>
       <use style="stroke:#000000;stroke-width:0.8;" x="108" xlink:href="#mc195812028" y="63.170608"/>
      </g>
     </g>
     <g id="text_14">
      <!-- 0.2 -->
      <g transform="translate(85.096875 66.969827)scale(0.1 -0.1)">
       <use xlink:href="#DejaVuSans-48"/>
       <use x="63.623047" xlink:href="#DejaVuSans-46"/>
       <use x="95.410156" xlink:href="#DejaVuSans-50"/>
      </g>
     </g>
    </g>
    <g id="text_15">
     <!-- $p_{dd}$ delta shift -->
     <g transform="translate(70.617188 177.78)rotate(-90)scale(0.1 -0.1)">
      <defs>
       <path d="M 49.609375 33.6875 
Q 49.609375 40.875 46.484375 44.671875 
Q 43.359375 48.484375 37.5 48.484375 
Q 33.5 48.484375 29.859375 46.4375 
Q 26.21875 44.390625 23.390625 40.484375 
Q 20.609375 36.625 18.9375 31.15625 
Q 17.28125 25.6875 17.28125 20.3125 
Q 17.28125 13.484375 20.40625 9.796875 
Q 23.53125 6.109375 29.296875 6.109375 
Q 33.546875 6.109375 37.1875 8.109375 
Q 40.828125 10.109375 43.40625 13.921875 
Q 46.1875 17.921875 47.890625 23.34375 
Q 49.609375 28.765625 49.609375 33.6875 
z
M 21.78125 46.390625 
Q 25.390625 51.125 30.296875 53.5625 
Q 35.203125 56 41.21875 56 
Q 49.609375 56 54.25 50.5 
Q 58.890625 45.015625 58.890625 35.109375 
Q 58.890625 27 56 19.65625 
Q 53.125 12.3125 47.703125 6.5 
Q 44.09375 2.640625 39.546875 0.609375 
Q 35.015625 -1.421875 29.984375 -1.421875 
Q 24.171875 -1.421875 20.21875 1 
Q 16.265625 3.421875 14.3125 8.203125 
L 8.6875 -20.796875 
L -0.296875 -20.796875 
L 14.40625 54.6875 
L 23.390625 54.6875 
z
" id="DejaVuSans-Oblique-112"/>
       <path d="M 45.40625 46.390625 
L 45.40625 75.984375 
L 54.390625 75.984375 
L 54.390625 0 
L 45.40625 0 
L 45.40625 8.203125 
Q 42.578125 3.328125 38.25 0.953125 
Q 33.9375 -1.421875 27.875 -1.421875 
Q 17.96875 -1.421875 11.734375 6.484375 
Q 5.515625 14.40625 5.515625 27.296875 
Q 5.515625 40.1875 11.734375 48.09375 
Q 17.96875 56 27.875 56 
Q 33.9375 56 38.25 53.625 
Q 42.578125 51.265625 45.40625 46.390625 
z
M 14.796875 27.296875 
Q 14.796875 17.390625 18.875 11.75 
Q 22.953125 6.109375 30.078125 6.109375 
Q 37.203125 6.109375 41.296875 11.75 
Q 45.40625 17.390625 45.40625 27.296875 
Q 45.40625 37.203125 41.296875 42.84375 
Q 37.203125 48.484375 30.078125 48.484375 
Q 22.953125 48.484375 18.875 42.84375 
Q 14.796875 37.203125 14.796875 27.296875 
z
" id="DejaVuSans-100"/>
       <path d="M 34.28125 27.484375 
Q 23.390625 27.484375 19.1875 25 
Q 14.984375 22.515625 14.984375 16.5 
Q 14.984375 11.71875 18.140625 8.90625 
Q 21.296875 6.109375 26.703125 6.109375 
Q 34.1875 6.109375 38.703125 11.40625 
Q 43.21875 16.703125 43.21875 25.484375 
L 43.21875 27.484375 
z
M 52.203125 31.203125 
L 52.203125 0 
L 43.21875 0 
L 43.21875 8.296875 
Q 40.140625 3.328125 35.546875 0.953125 
Q 30.953125 -1.421875 24.3125 -1.421875 
Q 15.921875 -1.421875 10.953125 3.296875 
Q 6 8.015625 6 15.921875 
Q 6 25.140625 12.171875 29.828125 
Q 18.359375 34.515625 30.609375 34.515625 
L 43.21875 34.515625 
L 43.21875 35.40625 
Q 43.21875 41.609375 39.140625 45 
Q 35.0625 48.390625 27.6875 48.390625 
Q 23 48.390625 18.546875 47.265625 
Q 14.109375 46.140625 10.015625 43.890625 
L 10.015625 52.203125 
Q 14.9375 54.109375 19.578125 55.046875 
Q 24.21875 56 28.609375 56 
Q 40.484375 56 46.34375 49.84375 
Q 52.203125 43.703125 52.203125 31.203125 
z
" id="DejaVuSans-97"/>
       <path d="M 44.28125 53.078125 
L 44.28125 44.578125 
Q 40.484375 46.53125 36.375 47.5 
Q 32.28125 48.484375 27.875 48.484375 
Q 21.1875 48.484375 17.84375 46.4375 
Q 14.5 44.390625 14.5 40.28125 
Q 14.5 37.15625 16.890625 35.375 
Q 19.28125 33.59375 26.515625 31.984375 
L 29.59375 31.296875 
Q 39.15625 29.25 43.1875 25.515625 
Q 47.21875 21.78125 47.21875 15.09375 
Q 47.21875 7.46875 41.1875 3.015625 
Q 35.15625 -1.421875 24.609375 -1.421875 
Q 20.21875 -1.421875 15.453125 -0.5625 
Q 10.6875 0.296875 5.421875 2 
L 5.421875 11.28125 
Q 10.40625 8.6875 15.234375 7.390625 
Q 20.0625 6.109375 24.8125 6.109375 
Q 31.15625 6.109375 34.5625 8.28125 
Q 37.984375 10.453125 37.984375 14.40625 
Q 37.984375 18.0625 35.515625 20.015625 
Q 33.0625 21.96875 24.703125 23.78125 
L 21.578125 24.515625 
Q 13.234375 26.265625 9.515625 29.90625 
Q 5.8125 33.546875 5.8125 39.890625 
Q 5.8125 47.609375 11.28125 51.796875 
Q 16.75 56 26.8125 56 
Q 31.78125 56 36.171875 55.265625 
Q 40.578125 54.546875 44.28125 53.078125 
z
" id="DejaVuSans-115"/>
       <path d="M 54.890625 33.015625 
L 54.890625 0 
L 45.90625 0 
L 45.90625 32.71875 
Q 45.90625 40.484375 42.875 44.328125 
Q 39.84375 48.1875 33.796875 48.1875 
Q 26.515625 48.1875 22.3125 43.546875 
Q 18.109375 38.921875 18.109375 30.90625 
L 18.109375 0 
L 9.078125 0 
L 9.078125 75.984375 
L 18.109375 75.984375 
L 18.109375 46.1875 
Q 21.34375 51.125 25.703125 53.5625 
Q 30.078125 56 35.796875 56 
Q 45.21875 56 50.046875 50.171875 
Q 54.890625 44.34375 54.890625 33.015625 
z
" id="DejaVuSans-104"/>
       <path d="M 37.109375 75.984375 
L 37.109375 68.5 
L 28.515625 68.5 
Q 23.6875 68.5 21.796875 66.546875 
Q 19.921875 64.59375 19.921875 59.515625 
L 19.921875 54.6875 
L 34.71875 54.6875 
L 34.71875 47.703125 
L 19.921875 47.703125 
L 19.921875 0 
L 10.890625 0 
L 10.890625 47.703125 
L 2.296875 47.703125 
L 2.296875 54.6875 
L 10.890625 54.6875 
L 10.890625 58.5 
Q 10.890625 67.625 15.140625 71.796875 
Q 19.390625 75.984375 28.609375 75.984375 
z
" id="DejaVuSans-102"/>
      </defs>
      <use transform="translate(0 0.015625)" xlink:href="#DejaVuSans-Oblique-112"/>
      <use transform="translate(63.476562 -16.390625)scale(0.7)" xlink:href="#DejaVuSans-Oblique-100"/>
      <use transform="translate(107.910156 -16.390625)scale(0.7)" xlink:href="#DejaVuSans-Oblique-100"/>
      <use transform="translate(155.078125 0.015625)" xlink:href="#DejaVuSans-32"/>
      <use transform="translate(186.865234 0.015625)" xlink:href="#DejaVuSans-100"/>
      <use transform="translate(250.341797 0.015625)" xlink:href="#DejaVuSans-101"/>
      <use transform="translate(311.865234 0.015625)" xlink:href="#DejaVuSans-108"/>
      <use transform="translate(339.648438 0.015625)" xlink:href="#DejaVuSans-116"/>
      <use transform="translate(378.857422 0.015625)" xlink:href="#DejaVuSans-97"/>
      <use transform="translate(440.136719 0.015625)" xlink:href="#DejaVuSans-32"/>
      <use transform="translate(471.923828 0.015625)" xlink:href="#DejaVuSans-115"/>
      <use transform="translate(524.023438 0.015625)" xlink:href="#DejaVuSans-104"/>
      <use transform="translate(587.402344 0.015625)" xlink:href="#DejaVuSans-105"/>
      <use transform="translate(615.185547 0.015625)" xlink:href="#DejaVuSans-102"/>
      <use transform="translate(650.390625 0.015625)" xlink:href="#DejaVuSans-116"/>
     </g>
    </g>
   </g>
   <g id="line2d_14">
    <path clip-path="url(#p5d3df21420)" d="M 108 205.658436 
L 412.363636 205.658436 
" style="fill:none;stroke:#000000;stroke-linecap:square;stroke-width:1.5;"/>
   </g>
   <g id="line2d_15">
    <path clip-path="url(#p5d3df21420)" d="M 279.776044 252 
L 279.776044 34.56 
" style="fill:none;stroke:#000000;stroke-linecap:square;stroke-width:1.5;"/>
   </g>
   <g id="patch_3">
    <path d="M 108 252 
L 108 34.56 
" style="fill:none;stroke:#000000;stroke-linecap:square;stroke-linejoin:miter;stroke-width:0.8;"/>
   </g>
   <g id="patch_4">
    <path d="M 412.363636 252 
L 412.363636 34.56 
" style="fill:none;stroke:#000000;stroke-linecap:square;stroke-linejoin:miter;stroke-width:0.8;"/>
   </g>
   <g id="patch_5">
    <path d="M 108 252 
L 412.363636 252 
" style="fill:none;stroke:#000000;stroke-linecap:square;stroke-linejoin:miter;stroke-width:0.8;"/>
   </g>
   <g id="patch_6">
    <path d="M 108 34.56 
L 412.363636 34.56 
" style="fill:none;stroke:#000000;stroke-linecap:square;stroke-linejoin:miter;stroke-width:0.8;"/>
   </g>
  </g>
  <g id="axes_2">
   <g id="patch_7">
    <path d="M 473.236364 252 
L 777.6 252 
L 777.6 34.56 
L 473.236364 34.56 
z
" style="fill:#ffffff;"/>
   </g>
   <g id="patch_8">
    <path clip-path="url(#p18e527e022)" d="M 487.071074 252 
L 514.740496 252 
L 514.740496 145.906826 
L 487.071074 145.906826 
z
" style="fill:#ffa500;"/>
   </g>
   <g id="patch_9">
    <path clip-path="url(#p18e527e022)" d="M 514.740496 252 
L 542.409917 252 
L 542.409917 208.644616 
L 514.740496 208.644616 
z
" style="fill:#ffa500;"/>
   </g>
   <g id="patch_10">
    <path clip-path="url(#p18e527e022)" d="M 542.409917 252 
L 570.079339 252 
L 570.079339 224.45658 
L 542.409917 224.45658 
z
" style="fill:#ffa500;"/>
   </g>
   <g id="patch_11">
    <path clip-path="url(#p18e527e022)" d="M 570.079339 252 
L 597.74876 252 
L 597.74876 238.738353 
L 570.079339 238.738353 
z
" style="fill:#ffa500;"/>
   </g>
   <g id="patch_12">
    <path clip-path="url(#p18e527e022)" d="M 597.74876 252 
L 625.418182 252 
L 625.418182 225.476707 
L 597.74876 225.476707 
z
" style="fill:#ffa500;"/>
   </g>
   <g id="patch_13">
    <path clip-path="url(#p18e527e022)" d="M 625.418182 252 
L 653.087603 252 
L 653.087603 232.10753 
L 625.418182 232.10753 
z
" style="fill:#ffa500;"/>
   </g>
   <g id="patch_14">
    <path clip-path="url(#p18e527e022)" d="M 653.087603 252 
L 680.757025 252 
L 680.757025 235.677973 
L 653.087603 235.677973 
z
" style="fill:#ffa500;"/>
   </g>
   <g id="patch_15">
    <path clip-path="url(#p18e527e022)" d="M 680.757025 252 
L 708.426446 252 
L 708.426446 227.51696 
L 680.757025 227.51696 
z
" style="fill:#ffa500;"/>
   </g>
   <g id="patch_16">
    <path clip-path="url(#p18e527e022)" d="M 708.426446 252 
L 736.095868 252 
L 736.095868 226.496833 
L 708.426446 226.496833 
z
" style="fill:#ffa500;"/>
   </g>
   <g id="patch_17">
    <path clip-path="url(#p18e527e022)" d="M 736.095868 252 
L 763.765289 252 
L 763.765289 44.914286 
L 736.095868 44.914286 
z
" style="fill:#ffa500;"/>
   </g>
   <g id="matplotlib.axis_3">
    <g id="xtick_9">
     <g id="line2d_16">
      <g>
       <use style="stroke:#000000;stroke-width:0.8;" x="487.071074" xlink:href="#m605d48f0ff" y="252"/>
      </g>
     </g>
     <g id="text_16">
      <!-- 0 -->
      <g transform="translate(483.889824 266.598437)scale(0.1 -0.1)">
       <use xlink:href="#DejaVuSans-48"/>
      </g>
     </g>
    </g>
    <g id="xtick_10">
     <g id="line2d_17">
      <g>
       <use style="stroke:#000000;stroke-width:0.8;" x="539.774734" xlink:href="#m605d48f0ff" y="252"/>
      </g>
     </g>
     <g id="text_17">
      <!-- 20 -->
      <g transform="translate(533.412234 266.598437)scale(0.1 -0.1)">
       <use xlink:href="#DejaVuSans-50"/>
       <use x="63.623047" xlink:href="#DejaVuSans-48"/>
      </g>
     </g>
    </g>
    <g id="xtick_11">
     <g id="line2d_18">
      <g>
       <use style="stroke:#000000;stroke-width:0.8;" x="592.478394" xlink:href="#m605d48f0ff" y="252"/>
      </g>
     </g>
     <g id="text_18">
      <!-- 40 -->
      <g transform="translate(586.115894 266.598437)scale(0.1 -0.1)">
       <use xlink:href="#DejaVuSans-52"/>
       <use x="63.623047" xlink:href="#DejaVuSans-48"/>
      </g>
     </g>
    </g>
    <g id="xtick_12">
     <g id="line2d_19">
      <g>
       <use style="stroke:#000000;stroke-width:0.8;" x="645.182054" xlink:href="#m605d48f0ff" y="252"/>
      </g>
     </g>
     <g id="text_19">
      <!-- 60 -->
      <g transform="translate(638.819554 266.598437)scale(0.1 -0.1)">
       <use xlink:href="#DejaVuSans-54"/>
       <use x="63.623047" xlink:href="#DejaVuSans-48"/>
      </g>
     </g>
    </g>
    <g id="xtick_13">
     <g id="line2d_20">
      <g>
       <use style="stroke:#000000;stroke-width:0.8;" x="697.885714" xlink:href="#m605d48f0ff" y="252"/>
      </g>
     </g>
     <g id="text_20">
      <!-- 80 -->
      <g transform="translate(691.523214 266.598437)scale(0.1 -0.1)">
       <defs>
        <path d="M 31.78125 34.625 
Q 24.75 34.625 20.71875 30.859375 
Q 16.703125 27.09375 16.703125 20.515625 
Q 16.703125 13.921875 20.71875 10.15625 
Q 24.75 6.390625 31.78125 6.390625 
Q 38.8125 6.390625 42.859375 10.171875 
Q 46.921875 13.96875 46.921875 20.515625 
Q 46.921875 27.09375 42.890625 30.859375 
Q 38.875 34.625 31.78125 34.625 
z
M 21.921875 38.8125 
Q 15.578125 40.375 12.03125 44.71875 
Q 8.5 49.078125 8.5 55.328125 
Q 8.5 64.0625 14.71875 69.140625 
Q 20.953125 74.21875 31.78125 74.21875 
Q 42.671875 74.21875 48.875 69.140625 
Q 55.078125 64.0625 55.078125 55.328125 
Q 55.078125 49.078125 51.53125 44.71875 
Q 48 40.375 41.703125 38.8125 
Q 48.828125 37.15625 52.796875 32.3125 
Q 56.78125 27.484375 56.78125 20.515625 
Q 56.78125 9.90625 50.3125 4.234375 
Q 43.84375 -1.421875 31.78125 -1.421875 
Q 19.734375 -1.421875 13.25 4.234375 
Q 6.78125 9.90625 6.78125 20.515625 
Q 6.78125 27.484375 10.78125 32.3125 
Q 14.796875 37.15625 21.921875 38.8125 
z
M 18.3125 54.390625 
Q 18.3125 48.734375 21.84375 45.5625 
Q 25.390625 42.390625 31.78125 42.390625 
Q 38.140625 42.390625 41.71875 45.5625 
Q 45.3125 48.734375 45.3125 54.390625 
Q 45.3125 60.0625 41.71875 63.234375 
Q 38.140625 66.40625 31.78125 66.40625 
Q 25.390625 66.40625 21.84375 63.234375 
Q 18.3125 60.0625 18.3125 54.390625 
z
" id="DejaVuSans-56"/>
       </defs>
       <use xlink:href="#DejaVuSans-56"/>
       <use x="63.623047" xlink:href="#DejaVuSans-48"/>
      </g>
     </g>
    </g>
    <g id="xtick_14">
     <g id="line2d_21">
      <g>
       <use style="stroke:#000000;stroke-width:0.8;" x="750.589374" xlink:href="#m605d48f0ff" y="252"/>
      </g>
     </g>
     <g id="text_21">
      <!-- 100 -->
      <g transform="translate(741.045624 266.598437)scale(0.1 -0.1)">
       <use xlink:href="#DejaVuSans-49"/>
       <use x="63.623047" xlink:href="#DejaVuSans-48"/>
       <use x="127.246094" xlink:href="#DejaVuSans-48"/>
      </g>
     </g>
    </g>
    <g id="text_22">
     <!-- Years of drought -->
     <g transform="translate(584.579901 280.276563)scale(0.1 -0.1)">
      <defs>
       <path d="M -0.203125 72.90625 
L 10.40625 72.90625 
L 30.609375 42.921875 
L 50.6875 72.90625 
L 61.28125 72.90625 
L 35.5 34.71875 
L 35.5 0 
L 25.59375 0 
L 25.59375 34.71875 
z
" id="DejaVuSans-89"/>
       <path d="M 30.609375 48.390625 
Q 23.390625 48.390625 19.1875 42.75 
Q 14.984375 37.109375 14.984375 27.296875 
Q 14.984375 17.484375 19.15625 11.84375 
Q 23.34375 6.203125 30.609375 6.203125 
Q 37.796875 6.203125 41.984375 11.859375 
Q 46.1875 17.53125 46.1875 27.296875 
Q 46.1875 37.015625 41.984375 42.703125 
Q 37.796875 48.390625 30.609375 48.390625 
z
M 30.609375 56 
Q 42.328125 56 49.015625 48.375 
Q 55.71875 40.765625 55.71875 27.296875 
Q 55.71875 13.875 49.015625 6.21875 
Q 42.328125 -1.421875 30.609375 -1.421875 
Q 18.84375 -1.421875 12.171875 6.21875 
Q 5.515625 13.875 5.515625 27.296875 
Q 5.515625 40.765625 12.171875 48.375 
Q 18.84375 56 30.609375 56 
z
" id="DejaVuSans-111"/>
       <path d="M 45.40625 27.984375 
Q 45.40625 37.75 41.375 43.109375 
Q 37.359375 48.484375 30.078125 48.484375 
Q 22.859375 48.484375 18.828125 43.109375 
Q 14.796875 37.75 14.796875 27.984375 
Q 14.796875 18.265625 18.828125 12.890625 
Q 22.859375 7.515625 30.078125 7.515625 
Q 37.359375 7.515625 41.375 12.890625 
Q 45.40625 18.265625 45.40625 27.984375 
z
M 54.390625 6.78125 
Q 54.390625 -7.171875 48.1875 -13.984375 
Q 42 -20.796875 29.203125 -20.796875 
Q 24.46875 -20.796875 20.265625 -20.09375 
Q 16.0625 -19.390625 12.109375 -17.921875 
L 12.109375 -9.1875 
Q 16.0625 -11.328125 19.921875 -12.34375 
Q 23.78125 -13.375 27.78125 -13.375 
Q 36.625 -13.375 41.015625 -8.765625 
Q 45.40625 -4.15625 45.40625 5.171875 
L 45.40625 9.625 
Q 42.625 4.78125 38.28125 2.390625 
Q 33.9375 0 27.875 0 
Q 17.828125 0 11.671875 7.65625 
Q 5.515625 15.328125 5.515625 27.984375 
Q 5.515625 40.671875 11.671875 48.328125 
Q 17.828125 56 27.875 56 
Q 33.9375 56 38.28125 53.609375 
Q 42.625 51.21875 45.40625 46.390625 
L 45.40625 54.6875 
L 54.390625 54.6875 
z
" id="DejaVuSans-103"/>
      </defs>
      <use xlink:href="#DejaVuSans-89"/>
      <use x="47.833984" xlink:href="#DejaVuSans-101"/>
      <use x="109.357422" xlink:href="#DejaVuSans-97"/>
      <use x="170.636719" xlink:href="#DejaVuSans-114"/>
      <use x="211.75" xlink:href="#DejaVuSans-115"/>
      <use x="263.849609" xlink:href="#DejaVuSans-32"/>
      <use x="295.636719" xlink:href="#DejaVuSans-111"/>
      <use x="356.818359" xlink:href="#DejaVuSans-102"/>
      <use x="392.023438" xlink:href="#DejaVuSans-32"/>
      <use x="423.810547" xlink:href="#DejaVuSans-100"/>
      <use x="487.287109" xlink:href="#DejaVuSans-114"/>
      <use x="526.150391" xlink:href="#DejaVuSans-111"/>
      <use x="587.332031" xlink:href="#DejaVuSans-117"/>
      <use x="650.710938" xlink:href="#DejaVuSans-103"/>
      <use x="714.1875" xlink:href="#DejaVuSans-104"/>
      <use x="777.566406" xlink:href="#DejaVuSans-116"/>
     </g>
    </g>
   </g>
   <g id="matplotlib.axis_4">
    <g id="ytick_6">
     <g id="line2d_22">
      <g>
       <use style="stroke:#000000;stroke-width:0.8;" x="473.236364" xlink:href="#mc195812028" y="252"/>
      </g>
     </g>
     <g id="text_23">
      <!-- 0 -->
      <g transform="translate(459.873864 255.799219)scale(0.1 -0.1)">
       <use xlink:href="#DejaVuSans-48"/>
      </g>
     </g>
    </g>
    <g id="ytick_7">
     <g id="line2d_23">
      <g>
       <use style="stroke:#000000;stroke-width:0.8;" x="473.236364" xlink:href="#mc195812028" y="226.496833"/>
      </g>
     </g>
     <g id="text_24">
      <!-- 50 -->
      <g transform="translate(453.511364 230.296052)scale(0.1 -0.1)">
       <use xlink:href="#DejaVuSans-53"/>
       <use x="63.623047" xlink:href="#DejaVuSans-48"/>
      </g>
     </g>
    </g>
    <g id="ytick_8">
     <g id="line2d_24">
      <g>
       <use style="stroke:#000000;stroke-width:0.8;" x="473.236364" xlink:href="#mc195812028" y="200.993666"/>
      </g>
     </g>
     <g id="text_25">
      <!-- 100 -->
      <g transform="translate(447.148864 204.792885)scale(0.1 -0.1)">
       <use xlink:href="#DejaVuSans-49"/>
       <use x="63.623047" xlink:href="#DejaVuSans-48"/>
       <use x="127.246094" xlink:href="#DejaVuSans-48"/>
      </g>
     </g>
    </g>
    <g id="ytick_9">
     <g id="line2d_25">
      <g>
       <use style="stroke:#000000;stroke-width:0.8;" x="473.236364" xlink:href="#mc195812028" y="175.4905"/>
      </g>
     </g>
     <g id="text_26">
      <!-- 150 -->
      <g transform="translate(447.148864 179.289718)scale(0.1 -0.1)">
       <use xlink:href="#DejaVuSans-49"/>
       <use x="63.623047" xlink:href="#DejaVuSans-53"/>
       <use x="127.246094" xlink:href="#DejaVuSans-48"/>
      </g>
     </g>
    </g>
    <g id="ytick_10">
     <g id="line2d_26">
      <g>
       <use style="stroke:#000000;stroke-width:0.8;" x="473.236364" xlink:href="#mc195812028" y="149.987333"/>
      </g>
     </g>
     <g id="text_27">
      <!-- 200 -->
      <g transform="translate(447.148864 153.786552)scale(0.1 -0.1)">
       <use xlink:href="#DejaVuSans-50"/>
       <use x="63.623047" xlink:href="#DejaVuSans-48"/>
       <use x="127.246094" xlink:href="#DejaVuSans-48"/>
      </g>
     </g>
    </g>
    <g id="ytick_11">
     <g id="line2d_27">
      <g>
       <use style="stroke:#000000;stroke-width:0.8;" x="473.236364" xlink:href="#mc195812028" y="124.484166"/>
      </g>
     </g>
     <g id="text_28">
      <!-- 250 -->
      <g transform="translate(447.148864 128.283385)scale(0.1 -0.1)">
       <use xlink:href="#DejaVuSans-50"/>
       <use x="63.623047" xlink:href="#DejaVuSans-53"/>
       <use x="127.246094" xlink:href="#DejaVuSans-48"/>
      </g>
     </g>
    </g>
    <g id="ytick_12">
     <g id="line2d_28">
      <g>
       <use style="stroke:#000000;stroke-width:0.8;" x="473.236364" xlink:href="#mc195812028" y="98.980999"/>
      </g>
     </g>
     <g id="text_29">
      <!-- 300 -->
      <g transform="translate(447.148864 102.780218)scale(0.1 -0.1)">
       <defs>
        <path d="M 40.578125 39.3125 
Q 47.65625 37.796875 51.625 33 
Q 55.609375 28.21875 55.609375 21.1875 
Q 55.609375 10.40625 48.1875 4.484375 
Q 40.765625 -1.421875 27.09375 -1.421875 
Q 22.515625 -1.421875 17.65625 -0.515625 
Q 12.796875 0.390625 7.625 2.203125 
L 7.625 11.71875 
Q 11.71875 9.328125 16.59375 8.109375 
Q 21.484375 6.890625 26.8125 6.890625 
Q 36.078125 6.890625 40.9375 10.546875 
Q 45.796875 14.203125 45.796875 21.1875 
Q 45.796875 27.640625 41.28125 31.265625 
Q 36.765625 34.90625 28.71875 34.90625 
L 20.21875 34.90625 
L 20.21875 43.015625 
L 29.109375 43.015625 
Q 36.375 43.015625 40.234375 45.921875 
Q 44.09375 48.828125 44.09375 54.296875 
Q 44.09375 59.90625 40.109375 62.90625 
Q 36.140625 65.921875 28.71875 65.921875 
Q 24.65625 65.921875 20.015625 65.03125 
Q 15.375 64.15625 9.8125 62.3125 
L 9.8125 71.09375 
Q 15.4375 72.65625 20.34375 73.4375 
Q 25.25 74.21875 29.59375 74.21875 
Q 40.828125 74.21875 47.359375 69.109375 
Q 53.90625 64.015625 53.90625 55.328125 
Q 53.90625 49.265625 50.4375 45.09375 
Q 46.96875 40.921875 40.578125 39.3125 
z
" id="DejaVuSans-51"/>
       </defs>
       <use xlink:href="#DejaVuSans-51"/>
       <use x="63.623047" xlink:href="#DejaVuSans-48"/>
       <use x="127.246094" xlink:href="#DejaVuSans-48"/>
      </g>
     </g>
    </g>
    <g id="ytick_13">
     <g id="line2d_29">
      <g>
       <use style="stroke:#000000;stroke-width:0.8;" x="473.236364" xlink:href="#mc195812028" y="73.477833"/>
      </g>
     </g>
     <g id="text_30">
      <!-- 350 -->
      <g transform="translate(447.148864 77.277051)scale(0.1 -0.1)">
       <use xlink:href="#DejaVuSans-51"/>
       <use x="63.623047" xlink:href="#DejaVuSans-53"/>
       <use x="127.246094" xlink:href="#DejaVuSans-48"/>
      </g>
     </g>
    </g>
    <g id="ytick_14">
     <g id="line2d_30">
      <g>
       <use style="stroke:#000000;stroke-width:0.8;" x="473.236364" xlink:href="#mc195812028" y="47.974666"/>
      </g>
     </g>
     <g id="text_31">
      <!-- 400 -->
      <g transform="translate(447.148864 51.773884)scale(0.1 -0.1)">
       <use xlink:href="#DejaVuSans-52"/>
       <use x="63.623047" xlink:href="#DejaVuSans-48"/>
       <use x="127.246094" xlink:href="#DejaVuSans-48"/>
      </g>
     </g>
    </g>
    <g id="text_32">
     <!-- Number of states of the world -->
     <g transform="translate(441.069176 218.193281)rotate(-90)scale(0.1 -0.1)">
      <defs>
       <path d="M 9.8125 72.90625 
L 23.09375 72.90625 
L 55.421875 11.921875 
L 55.421875 72.90625 
L 64.984375 72.90625 
L 64.984375 0 
L 51.703125 0 
L 19.390625 60.984375 
L 19.390625 0 
L 9.8125 0 
z
" id="DejaVuSans-78"/>
       <path d="M 48.6875 27.296875 
Q 48.6875 37.203125 44.609375 42.84375 
Q 40.53125 48.484375 33.40625 48.484375 
Q 26.265625 48.484375 22.1875 42.84375 
Q 18.109375 37.203125 18.109375 27.296875 
Q 18.109375 17.390625 22.1875 11.75 
Q 26.265625 6.109375 33.40625 6.109375 
Q 40.53125 6.109375 44.609375 11.75 
Q 48.6875 17.390625 48.6875 27.296875 
z
M 18.109375 46.390625 
Q 20.953125 51.265625 25.265625 53.625 
Q 29.59375 56 35.59375 56 
Q 45.5625 56 51.78125 48.09375 
Q 58.015625 40.1875 58.015625 27.296875 
Q 58.015625 14.40625 51.78125 6.484375 
Q 45.5625 -1.421875 35.59375 -1.421875 
Q 29.59375 -1.421875 25.265625 0.953125 
Q 20.953125 3.328125 18.109375 8.203125 
L 18.109375 0 
L 9.078125 0 
L 9.078125 75.984375 
L 18.109375 75.984375 
z
" id="DejaVuSans-98"/>
       <path d="M 4.203125 54.6875 
L 13.1875 54.6875 
L 24.421875 12.015625 
L 35.59375 54.6875 
L 46.1875 54.6875 
L 57.421875 12.015625 
L 68.609375 54.6875 
L 77.59375 54.6875 
L 63.28125 0 
L 52.6875 0 
L 40.921875 44.828125 
L 29.109375 0 
L 18.5 0 
z
" id="DejaVuSans-119"/>
      </defs>
      <use xlink:href="#DejaVuSans-78"/>
      <use x="74.804688" xlink:href="#DejaVuSans-117"/>
      <use x="138.183594" xlink:href="#DejaVuSans-109"/>
      <use x="235.595703" xlink:href="#DejaVuSans-98"/>
      <use x="299.072266" xlink:href="#DejaVuSans-101"/>
      <use x="360.595703" xlink:href="#DejaVuSans-114"/>
      <use x="401.708984" xlink:href="#DejaVuSans-32"/>
      <use x="433.496094" xlink:href="#DejaVuSans-111"/>
      <use x="494.677734" xlink:href="#DejaVuSans-102"/>
      <use x="529.882812" xlink:href="#DejaVuSans-32"/>
      <use x="561.669922" xlink:href="#DejaVuSans-115"/>
      <use x="613.769531" xlink:href="#DejaVuSans-116"/>
      <use x="652.978516" xlink:href="#DejaVuSans-97"/>
      <use x="714.257812" xlink:href="#DejaVuSans-116"/>
      <use x="753.466797" xlink:href="#DejaVuSans-101"/>
      <use x="814.990234" xlink:href="#DejaVuSans-115"/>
      <use x="867.089844" xlink:href="#DejaVuSans-32"/>
      <use x="898.876953" xlink:href="#DejaVuSans-111"/>
      <use x="960.058594" xlink:href="#DejaVuSans-102"/>
      <use x="995.263672" xlink:href="#DejaVuSans-32"/>
      <use x="1027.050781" xlink:href="#DejaVuSans-116"/>
      <use x="1066.259766" xlink:href="#DejaVuSans-104"/>
      <use x="1129.638672" xlink:href="#DejaVuSans-101"/>
      <use x="1191.162109" xlink:href="#DejaVuSans-32"/>
      <use x="1222.949219" xlink:href="#DejaVuSans-119"/>
      <use x="1304.736328" xlink:href="#DejaVuSans-111"/>
      <use x="1365.917969" xlink:href="#DejaVuSans-114"/>
      <use x="1407.03125" xlink:href="#DejaVuSans-108"/>
      <use x="1434.814453" xlink:href="#DejaVuSans-100"/>
     </g>
    </g>
   </g>
   <g id="line2d_31">
    <path clip-path="url(#p18e527e022)" d="M 545.0451 252 
L 545.0451 34.56 
" style="fill:none;stroke:#000000;stroke-linecap:square;stroke-width:1.5;"/>
   </g>
   <g id="patch_18">
    <path d="M 473.236364 252 
L 473.236364 34.56 
" style="fill:none;stroke:#000000;stroke-linecap:square;stroke-linejoin:miter;stroke-width:0.8;"/>
   </g>
   <g id="patch_19">
    <path d="M 777.6 252 
L 777.6 34.56 
" style="fill:none;stroke:#000000;stroke-linecap:square;stroke-linejoin:miter;stroke-width:0.8;"/>
   </g>
   <g id="patch_20">
    <path d="M 473.236364 252 
L 777.6 252 
" style="fill:none;stroke:#000000;stroke-linecap:square;stroke-linejoin:miter;stroke-width:0.8;"/>
   </g>
   <g id="patch_21">
    <path d="M 473.236364 34.56 
L 777.6 34.56 
" style="fill:none;stroke:#000000;stroke-linecap:square;stroke-linejoin:miter;stroke-width:0.8;"/>
   </g>
  </g>
 </g>
 <defs>
  <clipPath id="p5d3df21420">
   <rect height="217.44" width="304.363636" x="108" y="34.56"/>
  </clipPath>
  <clipPath id="p18e527e022">
   <rect height="217.44" width="304.363636" x="473.236364" y="34.56"/>
  </clipPath>
 </defs>
</svg>
